<?xml version="1.0" encoding="UTF-8" standalone="no"?>
<!DOCTYPE svg PUBLIC "-//W3C//DTD SVG 1.1//EN"
 "http://www.w3.org/Graphics/SVG/1.1/DTD/svg11.dtd">
<!-- Generated by graphviz version 2.43.0 (0)
 -->
<!-- Title: imdf_net_1766186334.494502 Pages: 1 -->
<svg width="1432pt" height="215pt"
 viewBox="0.00 0.00 1432.00 215.00" xmlns="http://www.w3.org/2000/svg" xmlns:xlink="http://www.w3.org/1999/xlink">
<g id="graph0" class="graph" transform="scale(1 1) rotate(0) translate(4 211)">
<title>imdf_net_1766186334.494502</title>
<polygon fill="white" stroke="transparent" points="-4,4 -4,-211 1428,-211 1428,4 -4,4"/>
<!-- 267049381887728 -->
<g id="node1" class="node">
<title>267049381887728</title>
<polygon fill="white" stroke="black" points="203,-180 90,-180 90,-144 203,-144 203,-180"/>
<text text-anchor="middle" x="146.5" y="-158.9" font-family="Times,serif" font-size="12.00">register request</text>
</g>
<!-- 267049381887392 -->
<g id="node12" class="node">
<title>267049381887392</title>
<ellipse fill="white" stroke="black" cx="266" cy="-162" rx="27" ry="27"/>
</g>
<!-- 267049381887728&#45;&gt;267049381887392 -->
<g id="edge2" class="edge">
<title>267049381887728&#45;&gt;267049381887392</title>
<path fill="none" stroke="black" d="M203.15,-162C211.81,-162 220.57,-162 228.65,-162"/>
<polygon fill="black" stroke="black" points="228.83,-165.5 238.83,-162 228.83,-158.5 228.83,-165.5"/>
</g>
<!-- 267049381887248 -->
<g id="node2" class="node">
<title>267049381887248</title>
<polygon fill="black" stroke="black" points="383,-153 329,-153 329,-117 383,-117 383,-153"/>
</g>
<!-- 267049381886048 -->
<g id="node13" class="node">
<title>267049381886048</title>
<ellipse fill="white" stroke="black" cx="446" cy="-135" rx="27" ry="27"/>
</g>
<!-- 267049381887248&#45;&gt;267049381886048 -->
<g id="edge4" class="edge">
<title>267049381887248&#45;&gt;267049381886048</title>
<path fill="none" stroke="black" d="M383.4,-135C391.39,-135 400.31,-135 408.82,-135"/>
<polygon fill="black" stroke="black" points="408.92,-138.5 418.92,-135 408.92,-131.5 408.92,-138.5"/>
</g>
<!-- 267049381885040 -->
<g id="node14" class="node">
<title>267049381885040</title>
<ellipse fill="white" stroke="black" cx="446" cy="-63" rx="27" ry="27"/>
</g>
<!-- 267049381887248&#45;&gt;267049381885040 -->
<g id="edge5" class="edge">
<title>267049381887248&#45;&gt;267049381885040</title>
<path fill="none" stroke="black" d="M379.21,-116.83C390.54,-107.56 404.46,-96.17 416.57,-86.26"/>
<polygon fill="black" stroke="black" points="419.09,-88.72 424.61,-79.68 414.65,-83.31 419.09,-88.72"/>
</g>
<!-- 267049381887008 -->
<g id="node3" class="node">
<title>267049381887008</title>
<polygon fill="white" stroke="black" points="622,-153 533,-153 533,-117 622,-117 622,-153"/>
<text text-anchor="middle" x="577.5" y="-131.9" font-family="Times,serif" font-size="12.00">check ticket</text>
</g>
<!-- 267049381883408 -->
<g id="node15" class="node">
<title>267049381883408</title>
<ellipse fill="white" stroke="black" cx="709" cy="-135" rx="27" ry="27"/>
</g>
<!-- 267049381887008&#45;&gt;267049381883408 -->
<g id="edge9" class="edge">
<title>267049381887008&#45;&gt;267049381883408</title>
<path fill="none" stroke="black" d="M622.34,-135C638.44,-135 656.47,-135 671.82,-135"/>
<polygon fill="black" stroke="black" points="671.96,-138.5 681.96,-135 671.96,-131.5 671.96,-138.5"/>
</g>
<!-- 267049381886528 -->
<g id="node4" class="node">
<title>267049381886528</title>
<polygon fill="white" stroke="black" points="637.5,-90 517.5,-90 517.5,-54 637.5,-54 637.5,-90"/>
<text text-anchor="middle" x="577.5" y="-68.9" font-family="Times,serif" font-size="12.00">examine casually</text>
</g>
<!-- 267049381885520 -->
<g id="node16" class="node">
<title>267049381885520</title>
<ellipse fill="white" stroke="black" cx="709" cy="-63" rx="27" ry="27"/>
</g>
<!-- 267049381886528&#45;&gt;267049381885520 -->
<g id="edge11" class="edge">
<title>267049381886528&#45;&gt;267049381885520</title>
<path fill="none" stroke="black" d="M637.57,-67.9C649.27,-67.08 661.23,-66.25 671.89,-65.51"/>
<polygon fill="black" stroke="black" points="672.33,-68.99 682.06,-64.8 671.84,-62 672.33,-68.99"/>
</g>
<!-- 267049381882736 -->
<g id="node5" class="node">
<title>267049381882736</title>
<polygon fill="white" stroke="black" points="646,-36 509,-36 509,0 646,0 646,-36"/>
<text text-anchor="middle" x="577.5" y="-14.9" font-family="Times,serif" font-size="12.00">examine thoroughly</text>
</g>
<!-- 267049381882736&#45;&gt;267049381885520 -->
<g id="edge10" class="edge">
<title>267049381882736&#45;&gt;267049381885520</title>
<path fill="none" stroke="black" d="M630.43,-36.04C644.89,-41.07 660.25,-46.41 673.45,-50.99"/>
<polygon fill="black" stroke="black" points="672.48,-54.36 683.07,-54.34 674.77,-47.75 672.48,-54.36"/>
</g>
<!-- 267049381885184 -->
<g id="node6" class="node">
<title>267049381885184</title>
<polygon fill="white" stroke="black" points="828,-153 772,-153 772,-117 828,-117 828,-153"/>
<text text-anchor="middle" x="800" y="-131.9" font-family="Times,serif" font-size="12.00">decide</text>
</g>
<!-- 267049381886912 -->
<g id="node17" class="node">
<title>267049381886912</title>
<ellipse fill="white" stroke="black" cx="891" cy="-135" rx="27" ry="27"/>
</g>
<!-- 267049381885184&#45;&gt;267049381886912 -->
<g id="edge14" class="edge">
<title>267049381885184&#45;&gt;267049381886912</title>
<path fill="none" stroke="black" d="M828.19,-135C836.25,-135 845.22,-135 853.77,-135"/>
<polygon fill="black" stroke="black" points="853.89,-138.5 863.89,-135 853.89,-131.5 853.89,-138.5"/>
</g>
<!-- 267049382495536 -->
<g id="node7" class="node">
<title>267049382495536</title>
<polygon fill="white" stroke="black" points="1074,-207 954,-207 954,-171 1074,-171 1074,-207"/>
<text text-anchor="middle" x="1014" y="-185.9" font-family="Times,serif" font-size="12.00">reinitiate request</text>
</g>
<!-- 267049382495536&#45;&gt;267049381887392 -->
<g id="edge17" class="edge">
<title>267049382495536&#45;&gt;267049381887392</title>
<path fill="none" stroke="black" d="M953.6,-189.43C911.1,-189.7 852.53,-190 801,-190 445,-190 445,-190 445,-190 395.03,-190 338.12,-179.1 302.38,-170.9"/>
<polygon fill="black" stroke="black" points="302.98,-167.45 292.45,-168.56 301.38,-174.26 302.98,-167.45"/>
</g>
<!-- 267049371041968 -->
<g id="node8" class="node">
<title>267049371041968</title>
<polygon fill="black" stroke="black" points="1041,-153 987,-153 987,-117 1041,-117 1041,-153"/>
</g>
<!-- 267049381883840 -->
<g id="node18" class="node">
<title>267049381883840</title>
<ellipse fill="white" stroke="black" cx="1137" cy="-135" rx="27" ry="27"/>
</g>
<!-- 267049371041968&#45;&gt;267049381883840 -->
<g id="edge18" class="edge">
<title>267049371041968&#45;&gt;267049381883840</title>
<path fill="none" stroke="black" d="M1041.26,-135C1058.38,-135 1080.96,-135 1099.78,-135"/>
<polygon fill="black" stroke="black" points="1099.8,-138.5 1109.8,-135 1099.8,-131.5 1099.8,-138.5"/>
</g>
<!-- 267049371043744 -->
<g id="node9" class="node">
<title>267049371043744</title>
<polygon fill="white" stroke="black" points="1313,-180 1213,-180 1213,-144 1313,-144 1313,-180"/>
<text text-anchor="middle" x="1263" y="-158.9" font-family="Times,serif" font-size="12.00">reject request</text>
</g>
<!-- 267049382056480 -->
<g id="node19" class="node">
<title>267049382056480</title>
<ellipse fill="white" stroke="black" cx="1393" cy="-135" rx="27" ry="27"/>
<ellipse fill="none" stroke="black" cx="1393" cy="-135" rx="31" ry="31"/>
<text text-anchor="start" x="1377.5" y="-126.9" font-family="Times,serif" font-size="32.00">■</text>
</g>
<!-- 267049371043744&#45;&gt;267049382056480 -->
<g id="edge22" class="edge">
<title>267049371043744&#45;&gt;267049382056480</title>
<path fill="none" stroke="black" d="M1313.12,-151.64C1326.12,-148.9 1339.99,-145.97 1352.41,-143.35"/>
<polygon fill="black" stroke="black" points="1353.39,-146.72 1362.45,-141.23 1351.95,-139.87 1353.39,-146.72"/>
</g>
<!-- 267049371043168 -->
<g id="node10" class="node">
<title>267049371043168</title>
<polygon fill="white" stroke="black" points="1326,-126 1200,-126 1200,-90 1326,-90 1326,-126"/>
<text text-anchor="middle" x="1263" y="-104.9" font-family="Times,serif" font-size="12.00">pay compensation</text>
</g>
<!-- 267049371043168&#45;&gt;267049382056480 -->
<g id="edge21" class="edge">
<title>267049371043168&#45;&gt;267049382056480</title>
<path fill="none" stroke="black" d="M1326.13,-121.1C1335.18,-123.01 1344.29,-124.94 1352.72,-126.71"/>
<polygon fill="black" stroke="black" points="1352.11,-130.16 1362.62,-128.8 1353.56,-123.31 1352.11,-130.16"/>
</g>
<!-- 267049382058208 -->
<g id="node11" class="node">
<title>267049382058208</title>
<ellipse fill="white" stroke="black" cx="27" cy="-162" rx="27" ry="27"/>
<text text-anchor="start" x="11.5" y="-153.3" font-family="Times,serif" font-size="34.00">●</text>
</g>
<!-- 267049382058208&#45;&gt;267049381887728 -->
<g id="edge1" class="edge">
<title>267049382058208&#45;&gt;267049381887728</title>
<path fill="none" stroke="black" d="M54.08,-162C61.74,-162 70.49,-162 79.47,-162"/>
<polygon fill="black" stroke="black" points="79.66,-165.5 89.66,-162 79.66,-158.5 79.66,-165.5"/>
</g>
<!-- 267049381887392&#45;&gt;267049381887248 -->
<g id="edge3" class="edge">
<title>267049381887392&#45;&gt;267049381887248</title>
<path fill="none" stroke="black" d="M291.98,-154.34C300.42,-151.75 310,-148.81 319.11,-146.01"/>
<polygon fill="black" stroke="black" points="320.19,-149.34 328.73,-143.06 318.14,-142.65 320.19,-149.34"/>
</g>
<!-- 267049381886048&#45;&gt;267049381887008 -->
<g id="edge7" class="edge">
<title>267049381886048&#45;&gt;267049381887008</title>
<path fill="none" stroke="black" d="M473.21,-135C487.41,-135 505.49,-135 522.55,-135"/>
<polygon fill="black" stroke="black" points="523,-138.5 533,-135 523,-131.5 523,-138.5"/>
</g>
<!-- 267049381885040&#45;&gt;267049381886528 -->
<g id="edge6" class="edge">
<title>267049381885040&#45;&gt;267049381886528</title>
<path fill="none" stroke="black" d="M473.21,-64.82C483.2,-65.52 495.11,-66.34 507.23,-67.19"/>
<polygon fill="black" stroke="black" points="507.21,-70.69 517.43,-67.89 507.7,-63.71 507.21,-70.69"/>
</g>
<!-- 267049381885040&#45;&gt;267049381882736 -->
<g id="edge8" class="edge">
<title>267049381885040&#45;&gt;267049381882736</title>
<path fill="none" stroke="black" d="M471.66,-54.43C484.06,-50.12 499.69,-44.69 515.07,-39.35"/>
<polygon fill="black" stroke="black" points="516.29,-42.63 524.58,-36.04 513.99,-36.02 516.29,-42.63"/>
</g>
<!-- 267049381883408&#45;&gt;267049381885184 -->
<g id="edge12" class="edge">
<title>267049381883408&#45;&gt;267049381885184</title>
<path fill="none" stroke="black" d="M736.22,-135C744.17,-135 753.06,-135 761.59,-135"/>
<polygon fill="black" stroke="black" points="761.73,-138.5 771.73,-135 761.73,-131.5 761.73,-138.5"/>
</g>
<!-- 267049381885520&#45;&gt;267049381885184 -->
<g id="edge13" class="edge">
<title>267049381885520&#45;&gt;267049381885184</title>
<path fill="none" stroke="black" d="M730.64,-79.7C741.93,-88.83 756.13,-100.32 768.66,-110.45"/>
<polygon fill="black" stroke="black" points="766.62,-113.31 776.6,-116.88 771.03,-107.87 766.62,-113.31"/>
</g>
<!-- 267049381886912&#45;&gt;267049382495536 -->
<g id="edge15" class="edge">
<title>267049381886912&#45;&gt;267049382495536</title>
<path fill="none" stroke="black" d="M915.91,-145.67C929.38,-151.68 946.73,-159.42 963.03,-166.7"/>
<polygon fill="black" stroke="black" points="961.91,-170.03 972.46,-170.91 964.76,-163.64 961.91,-170.03"/>
</g>
<!-- 267049381886912&#45;&gt;267049371041968 -->
<g id="edge16" class="edge">
<title>267049381886912&#45;&gt;267049371041968</title>
<path fill="none" stroke="black" d="M918.26,-135C935.38,-135 957.96,-135 976.78,-135"/>
<polygon fill="black" stroke="black" points="976.8,-138.5 986.8,-135 976.8,-131.5 976.8,-138.5"/>
</g>
<!-- 267049381883840&#45;&gt;267049371043744 -->
<g id="edge19" class="edge">
<title>267049381883840&#45;&gt;267049371043744</title>
<path fill="none" stroke="black" d="M1163.69,-140.59C1175.11,-143.08 1189.06,-146.12 1202.83,-149.12"/>
<polygon fill="black" stroke="black" points="1202.26,-152.58 1212.78,-151.28 1203.75,-145.74 1202.26,-152.58"/>
</g>
<!-- 267049381883840&#45;&gt;267049371043168 -->
<g id="edge20" class="edge">
<title>267049381883840&#45;&gt;267049371043168</title>
<path fill="none" stroke="black" d="M1163.69,-129.41C1171.54,-127.7 1180.58,-125.73 1189.94,-123.69"/>
<polygon fill="black" stroke="black" points="1190.74,-127.1 1199.76,-121.55 1189.25,-120.26 1190.74,-127.1"/>
</g>
</g>
</svg>
