<?xml version="1.0" encoding="UTF-8" standalone="no"?>
<!DOCTYPE svg PUBLIC "-//W3C//DTD SVG 1.1//EN"
 "http://www.w3.org/Graphics/SVG/1.1/DTD/svg11.dtd">
<!-- Generated by graphviz version 2.43.0 (0)
 -->
<!-- Title: %3 Pages: 1 -->
<svg width="987pt" height="1082pt"
 viewBox="0.00 0.00 987.00 1081.94" xmlns="http://www.w3.org/2000/svg" xmlns:xlink="http://www.w3.org/1999/xlink">
<g id="graph0" class="graph" transform="scale(1 1) rotate(0) translate(4 1077.94)">
<title>%3</title>
<polygon fill="white" stroke="transparent" points="-4,4 -4,-1077.94 983,-1077.94 983,4 -4,4"/>
<!-- 7855491736051450785 -->
<g id="node1" class="node">
<title>7855491736051450785</title>
<polygon fill="none" stroke="black" points="109,-970.47 3,-970.47 3,-934.47 109,-934.47 109,-970.47"/>
<text text-anchor="middle" x="56" y="-949.37" font-family="Times,serif" font-size="12.00">Ticket Created</text>
</g>
<!-- 5363965635316695550 -->
<g id="node2" class="node">
<title>5363965635316695550</title>
<polygon fill="none" stroke="black" points="112,-885.47 0,-885.47 0,-849.47 112,-849.47 112,-885.47"/>
<text text-anchor="middle" x="56" y="-864.37" font-family="Times,serif" font-size="12.00">Ticket Assigned</text>
</g>
<!-- 7855491736051450785&#45;&gt;5363965635316695550 -->
<g id="edge1" class="edge">
<title>7855491736051450785&#45;&gt;5363965635316695550</title>
<path fill="none" stroke="#0000fe" stroke-width="1.01" d="M56,-934.27C56,-923.14 56,-908.41 56,-895.71"/>
<polygon fill="#0000fe" stroke="#0000fe" stroke-width="1.01" points="59.5,-895.64 56,-885.64 52.5,-895.64 59.5,-895.64"/>
<text text-anchor="middle" x="69.5" y="-906.87" font-family="Times,serif" font-size="12.00">18m</text>
</g>
<!-- &#45;8569589156486016851 -->
<g id="node3" class="node">
<title>&#45;8569589156486016851</title>
<polygon fill="none" stroke="black" points="631,-800.47 533,-800.47 533,-764.47 631,-764.47 631,-800.47"/>
<text text-anchor="middle" x="582" y="-779.37" font-family="Times,serif" font-size="12.00">Work Started</text>
</g>
<!-- 5363965635316695550&#45;&gt;&#45;8569589156486016851 -->
<g id="edge2" class="edge">
<title>5363965635316695550&#45;&gt;&#45;8569589156486016851</title>
<path fill="none" stroke="#0000fe" stroke-width="1" d="M112.29,-857.59C212.35,-841.8 420.24,-808.99 522.53,-792.85"/>
<polygon fill="#0000fe" stroke="#0000fe" stroke-width="1" points="523.35,-796.27 532.69,-791.25 522.26,-789.35 523.35,-796.27"/>
<text text-anchor="middle" x="364.5" y="-821.87" font-family="Times,serif" font-size="12.00">18m</text>
</g>
<!-- &#45;3713278724817932796 -->
<g id="node4" class="node">
<title>&#45;3713278724817932796</title>
<polygon fill="none" stroke="black" points="276.5,-607.47 171.5,-607.47 171.5,-571.47 276.5,-571.47 276.5,-607.47"/>
<text text-anchor="middle" x="224" y="-586.37" font-family="Times,serif" font-size="12.00">Awaiting Parts</text>
</g>
<!-- &#45;8569589156486016851&#45;&gt;&#45;3713278724817932796 -->
<g id="edge3" class="edge">
<title>&#45;8569589156486016851&#45;&gt;&#45;3713278724817932796</title>
<path fill="none" stroke="#0200fc" stroke-width="1.01" d="M532.89,-780.61C438.78,-777.82 238.58,-765.94 196,-715.47 172.42,-687.52 190.68,-643.91 206.76,-616.29"/>
<polygon fill="#0200fc" stroke="#0200fc" stroke-width="1.01" points="209.85,-617.94 212.07,-607.58 203.88,-614.29 209.85,-617.94"/>
<text text-anchor="middle" x="209.5" y="-694.37" font-family="Times,serif" font-size="12.00">50m</text>
</g>
<!-- 46700516694248381 -->
<g id="node5" class="node">
<title>46700516694248381</title>
<polygon fill="none" stroke="black" points="395.5,-715.47 232.5,-715.47 232.5,-679.47 395.5,-679.47 395.5,-715.47"/>
<text text-anchor="middle" x="314" y="-694.37" font-family="Times,serif" font-size="12.00">Awaiting User Response</text>
</g>
<!-- &#45;8569589156486016851&#45;&gt;46700516694248381 -->
<g id="edge4" class="edge">
<title>&#45;8569589156486016851&#45;&gt;46700516694248381</title>
<path fill="none" stroke="#0100fd" stroke-width="1.01" d="M532.73,-766.57C512.37,-760.39 488.53,-753.12 467,-746.47 437.74,-737.43 405.38,-727.29 377.99,-718.68"/>
<polygon fill="#0100fd" stroke="#0100fd" stroke-width="1.01" points="378.72,-715.24 368.13,-715.58 376.62,-721.92 378.72,-715.24"/>
<text text-anchor="middle" x="480.5" y="-736.87" font-family="Times,serif" font-size="12.00">41m</text>
</g>
<!-- 4640726311563430860 -->
<g id="node6" class="node">
<title>4640726311563430860</title>
<polygon fill="none" stroke="black" points="779.5,-715.47 668.5,-715.47 668.5,-679.47 779.5,-679.47 779.5,-715.47"/>
<text text-anchor="middle" x="724" y="-694.37" font-family="Times,serif" font-size="12.00">Escalated to L2</text>
</g>
<!-- &#45;8569589156486016851&#45;&gt;4640726311563430860 -->
<g id="edge5" class="edge">
<title>&#45;8569589156486016851&#45;&gt;4640726311563430860</title>
<path fill="none" stroke="#0100fd" stroke-width="1.01" d="M631.24,-774.64C652.88,-769.67 677.5,-761.13 696,-746.47 703.17,-740.78 708.87,-732.72 713.21,-724.82"/>
<polygon fill="#0100fd" stroke="#0100fd" stroke-width="1.01" points="716.39,-726.29 717.68,-715.78 710.11,-723.19 716.39,-726.29"/>
<text text-anchor="middle" x="720.5" y="-736.87" font-family="Times,serif" font-size="12.00">36m</text>
</g>
<!-- &#45;1445525020333494103 -->
<g id="node7" class="node">
<title>&#45;1445525020333494103</title>
<polygon fill="none" stroke="black" points="600.5,-329.47 489.5,-329.47 489.5,-293.47 600.5,-293.47 600.5,-329.47"/>
<text text-anchor="middle" x="545" y="-308.37" font-family="Times,serif" font-size="12.00">Escalated to L3</text>
</g>
<!-- &#45;8569589156486016851&#45;&gt;&#45;1445525020333494103 -->
<g id="edge6" class="edge">
<title>&#45;8569589156486016851&#45;&gt;&#45;1445525020333494103</title>
<path fill="none" stroke="#0700f7" stroke-width="1.05" d="M603.27,-764.43C619.82,-749.12 640,-725.01 640,-698.47 640,-698.47 640,-698.47 640,-395.47 640,-368.47 617.98,-348.23 595.14,-334.5"/>
<polygon fill="#0700f7" stroke="#0700f7" stroke-width="1.05" points="596.82,-331.43 586.39,-329.56 593.38,-337.52 596.82,-331.43"/>
<text text-anchor="middle" x="648" y="-532.37" font-family="Times,serif" font-size="12.00">2h</text>
</g>
<!-- 5518468731630115611 -->
<g id="node8" class="node">
<title>5518468731630115611</title>
<polygon fill="none" stroke="black" points="587,-661.47 437,-661.47 437,-625.47 587,-625.47 587,-661.47"/>
<text text-anchor="middle" x="512" y="-640.37" font-family="Times,serif" font-size="12.00">Escalated to Manager</text>
</g>
<!-- &#45;8569589156486016851&#45;&gt;5518468731630115611 -->
<g id="edge7" class="edge">
<title>&#45;8569589156486016851&#45;&gt;5518468731630115611</title>
<path fill="none" stroke="#0100fd" stroke-width="1.01" d="M571.17,-764.45C567.92,-758.86 564.55,-752.53 562,-746.47 550.01,-717.93 557.86,-706.62 543,-679.47 541.18,-676.14 538.99,-672.86 536.63,-669.72"/>
<polygon fill="#0100fd" stroke="#0100fd" stroke-width="1.01" points="539.16,-667.3 530.1,-661.81 533.76,-671.75 539.16,-667.3"/>
<text text-anchor="middle" x="575.5" y="-736.87" font-family="Times,serif" font-size="12.00">27m</text>
</g>
<!-- &#45;3524331523289108194 -->
<g id="node9" class="node">
<title>&#45;3524331523289108194</title>
<polygon fill="none" stroke="black" points="135.5,-244.47 68.5,-244.47 68.5,-208.47 135.5,-208.47 135.5,-244.47"/>
<text text-anchor="middle" x="102" y="-223.37" font-family="Times,serif" font-size="12.00">On Hold</text>
</g>
<!-- &#45;8569589156486016851&#45;&gt;&#45;3524331523289108194 -->
<g id="edge8" class="edge">
<title>&#45;8569589156486016851&#45;&gt;&#45;3524331523289108194</title>
<path fill="none" stroke="#0100fd" stroke-width="1.01" d="M533,-780.17C437.99,-777.18 232.18,-768.35 165,-746.47 125.94,-733.74 86,-739.55 86,-698.47 86,-698.47 86,-698.47 86,-310.47 86,-291.57 90.05,-270.68 94.07,-254.58"/>
<polygon fill="#0100fd" stroke="#0100fd" stroke-width="1.01" points="97.5,-255.33 96.67,-244.77 90.73,-253.54 97.5,-255.33"/>
<text text-anchor="middle" x="99.5" y="-478.37" font-family="Times,serif" font-size="12.00">34m</text>
</g>
<!-- &#45;6101028236161778831 -->
<g id="node10" class="node">
<title>&#45;6101028236161778831</title>
<polygon fill="none" stroke="black" points="534,-715.47 414,-715.47 414,-679.47 534,-679.47 534,-715.47"/>
<text text-anchor="middle" x="474" y="-694.37" font-family="Times,serif" font-size="12.00">Priority Changed</text>
</g>
<!-- &#45;8569589156486016851&#45;&gt;&#45;6101028236161778831 -->
<g id="edge9" class="edge">
<title>&#45;8569589156486016851&#45;&gt;&#45;6101028236161778831</title>
<path fill="none" stroke="#0000fe" stroke-width="1" d="M540.2,-764.31C530.43,-759.31 520.44,-753.32 512,-746.47 504.13,-740.07 496.84,-731.77 490.8,-723.87"/>
<polygon fill="#0000fe" stroke="#0000fe" stroke-width="1" points="493.47,-721.6 484.76,-715.57 487.81,-725.72 493.47,-721.6"/>
<text text-anchor="middle" x="525.5" y="-736.87" font-family="Times,serif" font-size="12.00">14m</text>
</g>
<!-- 4567080983048491761 -->
<g id="node11" class="node">
<title>4567080983048491761</title>
<polygon fill="none" stroke="black" points="333.5,-329.47 192.5,-329.47 192.5,-293.47 333.5,-293.47 333.5,-329.47"/>
<text text-anchor="middle" x="263" y="-308.37" font-family="Times,serif" font-size="12.00">Resolution Proposed</text>
</g>
<!-- &#45;8569589156486016851&#45;&gt;4567080983048491761 -->
<g id="edge10" class="edge">
<title>&#45;8569589156486016851&#45;&gt;4567080983048491761</title>
<path fill="none" stroke="#1600e8" stroke-width="1.14" d="M532.8,-779.58C447.11,-775.81 274.15,-766.01 217,-746.47 179.2,-733.54 141,-738.42 141,-698.47 141,-698.47 141,-698.47 141,-395.47 141,-366.12 165.43,-346.42 192.42,-333.61"/>
<polygon fill="#1600e8" stroke="#1600e8" stroke-width="1.14" points="193.92,-336.77 201.64,-329.52 191.08,-330.37 193.92,-336.77"/>
<text text-anchor="middle" x="149" y="-532.37" font-family="Times,serif" font-size="12.00">8h</text>
</g>
<!-- 9142200495019390946 -->
<g id="node12" class="node">
<title>9142200495019390946</title>
<polygon fill="none" stroke="black" points="924,-715.47 798,-715.47 798,-679.47 924,-679.47 924,-715.47"/>
<text text-anchor="middle" x="861" y="-694.37" font-family="Times,serif" font-size="12.00">Ticket Reassigned</text>
</g>
<!-- &#45;8569589156486016851&#45;&gt;9142200495019390946 -->
<g id="edge11" class="edge">
<title>&#45;8569589156486016851&#45;&gt;9142200495019390946</title>
<path fill="none" stroke="#0200fc" stroke-width="1.02" d="M631.27,-780.89C677.27,-778.7 746.92,-771.09 802,-746.47 814.75,-740.77 827.03,-731.59 837.06,-722.78"/>
<polygon fill="#0200fc" stroke="#0200fc" stroke-width="1.02" points="839.59,-725.21 844.58,-715.86 834.85,-720.05 839.59,-725.21"/>
<text text-anchor="middle" x="836.5" y="-736.87" font-family="Times,serif" font-size="12.00">57m</text>
</g>
<!-- 991227552401406763 -->
<g id="node13" class="node">
<title>991227552401406763</title>
<polygon fill="none" stroke="black" points="502,-244.47 390,-244.47 390,-208.47 502,-208.47 502,-244.47"/>
<text text-anchor="middle" x="446" y="-223.37" font-family="Times,serif" font-size="12.00">Ticket Resolved</text>
</g>
<!-- &#45;8569589156486016851&#45;&gt;991227552401406763 -->
<g id="edge12" class="edge">
<title>&#45;8569589156486016851&#45;&gt;991227552401406763</title>
<path fill="none" stroke="#0100fd" stroke-width="1.01" d="M631.13,-780.63C731.78,-777.58 952,-763.48 952,-698.47 952,-698.47 952,-698.47 952,-310.47 952,-266.44 649.78,-240.89 512.47,-231.55"/>
<polygon fill="#0100fd" stroke="#0100fd" stroke-width="1.01" points="512.3,-228.04 502.08,-230.86 511.83,-235.02 512.3,-228.04"/>
<text text-anchor="middle" x="965.5" y="-478.37" font-family="Times,serif" font-size="12.00">41m</text>
</g>
<!-- &#45;4046915490179040667 -->
<g id="node15" class="node">
<title>&#45;4046915490179040667</title>
<polygon fill="none" stroke="black" points="358,-499.47 252,-499.47 252,-463.47 358,-463.47 358,-499.47"/>
<text text-anchor="middle" x="305" y="-478.37" font-family="Times,serif" font-size="12.00">Parts Received</text>
</g>
<!-- &#45;3713278724817932796&#45;&gt;&#45;4046915490179040667 -->
<g id="edge21" class="edge">
<title>&#45;3713278724817932796&#45;&gt;&#45;4046915490179040667</title>
<path fill="none" stroke="#92006c" stroke-width="1.92" d="M237.01,-571.44C250.16,-554.23 270.63,-527.45 285.67,-507.76"/>
<polygon fill="#92006c" stroke="#92006c" stroke-width="1.92" points="288.46,-509.88 291.75,-499.81 282.9,-505.63 288.46,-509.88"/>
<text text-anchor="middle" x="286" y="-532.37" font-family="Times,serif" font-size="12.00">2D</text>
</g>
<!-- 563865895662718467 -->
<g id="node17" class="node">
<title>563865895662718467</title>
<polygon fill="none" stroke="black" points="425.5,-553.47 310.5,-553.47 310.5,-517.47 425.5,-517.47 425.5,-553.47"/>
<text text-anchor="middle" x="368" y="-532.37" font-family="Times,serif" font-size="12.00">User Responded</text>
</g>
<!-- 46700516694248381&#45;&gt;563865895662718467 -->
<g id="edge22" class="edge">
<title>46700516694248381&#45;&gt;563865895662718467</title>
<path fill="none" stroke="#90006e" stroke-width="1.91" d="M313.86,-679.18C314.17,-664.58 315.65,-643.26 321,-625.47 327.75,-603.02 340.33,-579.66 350.78,-562.5"/>
<polygon fill="#90006e" stroke="#90006e" stroke-width="1.91" points="353.98,-563.99 356.32,-553.66 348.04,-560.28 353.98,-563.99"/>
<text text-anchor="middle" x="330" y="-640.37" font-family="Times,serif" font-size="12.00">2D</text>
</g>
<!-- 4640726311563430860&#45;&gt;&#45;8569589156486016851 -->
<g id="edge13" class="edge">
<title>4640726311563430860&#45;&gt;&#45;8569589156486016851</title>
<path fill="none" stroke="#0600f8" stroke-width="1.04" d="M700.91,-715.58C687.53,-725.17 670.18,-737.06 654,-746.47 646.06,-751.09 637.42,-755.65 628.97,-759.89"/>
<polygon fill="#0600f8" stroke="#0600f8" stroke-width="1.04" points="627.35,-756.78 619.92,-764.34 630.44,-763.07 627.35,-756.78"/>
<text text-anchor="middle" x="681" y="-736.87" font-family="Times,serif" font-size="12.00">2h</text>
</g>
<!-- &#45;1445525020333494103&#45;&gt;&#45;8569589156486016851 -->
<g id="edge14" class="edge">
<title>&#45;1445525020333494103&#45;&gt;&#45;8569589156486016851</title>
<path fill="none" stroke="#0000fe" stroke-width="1.01" d="M548.15,-329.69C556.61,-376.82 579.71,-511.96 588,-625.47 603.93,-843.62 591.08,-725.42 589,-746.47 588.75,-749 588.4,-751.63 587.99,-754.25"/>
<polygon fill="#0000fe" stroke="#0000fe" stroke-width="1.01" points="584.54,-753.66 586.17,-764.12 591.42,-754.92 584.54,-753.66"/>
<text text-anchor="middle" x="594.5" y="-532.37" font-family="Times,serif" font-size="12.00">23m</text>
</g>
<!-- &#45;5867975218853566218 -->
<g id="node18" class="node">
<title>&#45;5867975218853566218</title>
<polygon fill="none" stroke="black" points="447.5,-414.47 340.5,-414.47 340.5,-378.47 447.5,-378.47 447.5,-414.47"/>
<text text-anchor="middle" x="394" y="-393.37" font-family="Times,serif" font-size="12.00">Work Resumed</text>
</g>
<!-- 5518468731630115611&#45;&gt;&#45;5867975218853566218 -->
<g id="edge23" class="edge">
<title>5518468731630115611&#45;&gt;&#45;5867975218853566218</title>
<path fill="none" stroke="#0200fc" stroke-width="1.02" d="M513.17,-625.24C514.62,-591.56 513.78,-515.69 482,-463.47 471.09,-445.55 453.34,-430.85 436.63,-419.92"/>
<polygon fill="#0200fc" stroke="#0200fc" stroke-width="1.02" points="438.36,-416.87 428.03,-414.54 434.66,-422.81 438.36,-416.87"/>
<text text-anchor="middle" x="518" y="-532.37" font-family="Times,serif" font-size="12.00">1h</text>
</g>
<!-- 5774293330105444478 -->
<g id="node14" class="node">
<title>5774293330105444478</title>
<polygon fill="none" stroke="black" points="216,-159.47 112,-159.47 112,-123.47 216,-123.47 216,-159.47"/>
<text text-anchor="middle" x="164" y="-138.37" font-family="Times,serif" font-size="12.00">Hold Released</text>
</g>
<!-- &#45;3524331523289108194&#45;&gt;5774293330105444478 -->
<g id="edge24" class="edge">
<title>&#45;3524331523289108194&#45;&gt;5774293330105444478</title>
<path fill="none" stroke="#fe0000" stroke-width="2.6" d="M111.82,-208.08C117.36,-198.74 124.63,-187.17 132,-177.47 134.58,-174.08 137.42,-170.62 140.32,-167.28"/>
<polygon fill="#fe0000" stroke="#fe0000" stroke-width="2.6" points="143.01,-169.52 147.07,-159.73 137.79,-164.85 143.01,-169.52"/>
<text text-anchor="middle" x="141" y="-180.87" font-family="Times,serif" font-size="12.00">4D</text>
</g>
<!-- &#45;6101028236161778831&#45;&gt;&#45;3713278724817932796 -->
<g id="edge16" class="edge">
<title>&#45;6101028236161778831&#45;&gt;&#45;3713278724817932796</title>
<path fill="none" stroke="#0000fe" stroke-width="1.01" d="M417.7,-679.4C405.16,-674.49 392.26,-668.51 381,-661.47 361.28,-649.13 363.16,-637.07 343,-625.47 325.68,-615.5 305.27,-608.16 286.29,-602.85"/>
<polygon fill="#0000fe" stroke="#0000fe" stroke-width="1.01" points="287.09,-599.44 276.53,-600.25 285.29,-606.2 287.09,-599.44"/>
<text text-anchor="middle" x="394.5" y="-640.37" font-family="Times,serif" font-size="12.00">25m</text>
</g>
<!-- &#45;6101028236161778831&#45;&gt;&#45;1445525020333494103 -->
<g id="edge17" class="edge">
<title>&#45;6101028236161778831&#45;&gt;&#45;1445525020333494103</title>
<path fill="none" stroke="#0000ff" stroke-width="1" d="M449.29,-679.28C443.91,-674.22 438.95,-668.2 436,-661.47 429.57,-646.81 433.33,-641.24 436,-625.47 454.66,-515.14 507.87,-391.81 532.37,-338.9"/>
<polygon fill="#0000ff" stroke="#0000ff" stroke-width="1" points="535.67,-340.11 536.73,-329.57 529.33,-337.15 535.67,-340.11"/>
<text text-anchor="middle" x="489.5" y="-478.37" font-family="Times,serif" font-size="12.00">4m</text>
</g>
<!-- 4567080983048491761&#45;&gt;&#45;3713278724817932796 -->
<g id="edge18" class="edge">
<title>4567080983048491761&#45;&gt;&#45;3713278724817932796</title>
<path fill="none" stroke="#0000fe" stroke-width="1.01" d="M260.56,-329.73C253.98,-376.28 235.83,-504.74 227.85,-561.22"/>
<polygon fill="#0000fe" stroke="#0000fe" stroke-width="1.01" points="224.37,-560.81 226.44,-571.2 231.3,-561.79 224.37,-560.81"/>
<text text-anchor="middle" x="259.5" y="-435.87" font-family="Times,serif" font-size="12.00">25m</text>
</g>
<!-- 4567080983048491761&#45;&gt;&#45;3524331523289108194 -->
<g id="edge19" class="edge">
<title>4567080983048491761&#45;&gt;&#45;3524331523289108194</title>
<path fill="none" stroke="#0100fd" stroke-width="1.01" d="M229.64,-293.27C204.84,-280.49 170.83,-262.95 144.14,-249.19"/>
<polygon fill="#0100fd" stroke="#0100fd" stroke-width="1.01" points="145.53,-245.97 135.04,-244.5 142.33,-252.19 145.53,-245.97"/>
<text text-anchor="middle" x="206.5" y="-265.87" font-family="Times,serif" font-size="12.00">34m</text>
</g>
<!-- 4567080983048491761&#45;&gt;991227552401406763 -->
<g id="edge20" class="edge">
<title>4567080983048491761&#45;&gt;991227552401406763</title>
<path fill="none" stroke="#0100fd" stroke-width="1.01" d="M277.08,-293.06C286.29,-282.76 299.15,-270.24 313,-262.47 333.41,-251.02 357.68,-243.21 379.87,-237.93"/>
<polygon fill="#0100fd" stroke="#0100fd" stroke-width="1.01" points="380.9,-241.28 389.89,-235.68 379.37,-234.45 380.9,-241.28"/>
<text text-anchor="middle" x="326.5" y="-265.87" font-family="Times,serif" font-size="12.00">46m</text>
</g>
<!-- 9142200495019390946&#45;&gt;&#45;8569589156486016851 -->
<g id="edge15" class="edge">
<title>9142200495019390946&#45;&gt;&#45;8569589156486016851</title>
<path fill="none" stroke="#0b00f3" stroke-width="1.07" d="M821.65,-715.58C797.77,-725.52 766.5,-737.76 738,-746.47 706.54,-756.08 670.77,-764.29 641.42,-770.34"/>
<polygon fill="#0b00f3" stroke="#0b00f3" stroke-width="1.07" points="640.43,-766.97 631.33,-772.39 641.83,-773.83 640.43,-766.97"/>
<text text-anchor="middle" x="783" y="-736.87" font-family="Times,serif" font-size="12.00">4h</text>
</g>
<!-- 6414917095137245164 -->
<g id="node16" class="node">
<title>6414917095137245164</title>
<polygon fill="none" stroke="black" points="388,-159.47 290,-159.47 290,-123.47 388,-123.47 388,-159.47"/>
<text text-anchor="middle" x="339" y="-138.37" font-family="Times,serif" font-size="12.00">Ticket Closed</text>
</g>
<!-- 991227552401406763&#45;&gt;6414917095137245164 -->
<g id="edge34" class="edge">
<title>991227552401406763&#45;&gt;6414917095137245164</title>
<path fill="none" stroke="#0000fe" stroke-width="1" d="M423.83,-208.27C408.05,-196.03 386.65,-179.43 369.3,-165.97"/>
<polygon fill="#0000fe" stroke="#0000fe" stroke-width="1" points="371.19,-163.01 361.14,-159.64 366.9,-168.54 371.19,-163.01"/>
<text text-anchor="middle" x="408.5" y="-180.87" font-family="Times,serif" font-size="12.00">6m</text>
</g>
<!-- 5774293330105444478&#45;&gt;&#45;3713278724817932796 -->
<g id="edge25" class="edge">
<title>5774293330105444478&#45;&gt;&#45;3713278724817932796</title>
<path fill="none" stroke="#0000fe" stroke-width="1" d="M165.41,-159.52C168.21,-192.44 174.89,-267.01 183,-329.47 194.01,-414.28 210.94,-514.1 219.17,-561.22"/>
<polygon fill="#0000fe" stroke="#0000fe" stroke-width="1" points="215.76,-561.99 220.93,-571.24 222.65,-560.78 215.76,-561.99"/>
<text text-anchor="middle" x="201.5" y="-350.87" font-family="Times,serif" font-size="12.00">16m</text>
</g>
<!-- 5774293330105444478&#45;&gt;&#45;5867975218853566218 -->
<g id="edge29" class="edge">
<title>5774293330105444478&#45;&gt;&#45;5867975218853566218</title>
<path fill="none" stroke="#0000fe" stroke-width="1.01" d="M201.1,-159.54C240.39,-179.3 301.91,-215.27 340,-262.47 365.65,-294.25 380.59,-339.84 388.02,-368.54"/>
<polygon fill="#0000fe" stroke="#0000fe" stroke-width="1.01" points="384.63,-369.42 390.42,-378.29 391.43,-367.75 384.63,-369.42"/>
<text text-anchor="middle" x="362.5" y="-265.87" font-family="Times,serif" font-size="12.00">24m</text>
</g>
<!-- &#45;4046915490179040667&#45;&gt;&#45;5867975218853566218 -->
<g id="edge30" class="edge">
<title>&#45;4046915490179040667&#45;&gt;&#45;5867975218853566218</title>
<path fill="none" stroke="#0300fb" stroke-width="1.02" d="M323.44,-463.27C336.33,-451.25 353.72,-435.03 368.01,-421.71"/>
<polygon fill="#0300fb" stroke="#0300fb" stroke-width="1.02" points="370.66,-424.02 375.58,-414.64 365.88,-418.9 370.66,-424.02"/>
<text text-anchor="middle" x="363" y="-435.87" font-family="Times,serif" font-size="12.00">1h</text>
</g>
<!-- &#45;7157926008317320733 -->
<g id="node19" class="node">
<title>&#45;7157926008317320733</title>
<polygon fill="none" stroke="black" points="219.5,-55.23 102.5,-55.23 102.5,-19.23 219.5,-19.23 219.5,-55.23"/>
<text text-anchor="middle" x="161" y="-34.13" font-family="Times,serif" font-size="12.00">Ticket Reopened</text>
</g>
<!-- 6414917095137245164&#45;&gt;&#45;7157926008317320733 -->
<g id="edge32" class="edge">
<title>6414917095137245164&#45;&gt;&#45;7157926008317320733</title>
<path fill="none" stroke="#e3001b" stroke-width="2.43" d="M309.21,-123.36C279.17,-106.11 232.68,-79.4 199.78,-60.51"/>
<polygon fill="#e3001b" stroke="#e3001b" stroke-width="2.43" points="201.31,-57.35 190.89,-55.4 197.82,-63.42 201.31,-57.35"/>
<text text-anchor="middle" x="286" y="-95.87" font-family="Times,serif" font-size="12.00">3D</text>
</g>
<!-- @@endnode -->
<g id="node21" class="node">
<title>@@endnode</title>
<ellipse fill="none" stroke="black" cx="339" cy="-37.23" rx="33.44" ry="33.44"/>
<ellipse fill="none" stroke="black" cx="339" cy="-37.23" rx="37.47" ry="37.47"/>
<text text-anchor="start" x="323.5" y="-29.13" font-family="Times,serif" font-size="32.00">■</text>
</g>
<!-- 6414917095137245164&#45;&gt;@@endnode -->
<g id="edge36" class="edge">
<title>6414917095137245164&#45;&gt;@@endnode</title>
<path fill="none" stroke="black" d="M339,-123.13C339,-112.59 339,-98.6 339,-85.02"/>
<polygon fill="black" stroke="black" points="342.5,-84.77 339,-74.77 335.5,-84.77 342.5,-84.77"/>
</g>
<!-- 563865895662718467&#45;&gt;&#45;5867975218853566218 -->
<g id="edge31" class="edge">
<title>563865895662718467&#45;&gt;&#45;5867975218853566218</title>
<path fill="none" stroke="#0000fe" stroke-width="1" d="M371.24,-517.39C375.64,-494.22 383.55,-452.53 388.79,-424.93"/>
<polygon fill="#0000fe" stroke="#0000fe" stroke-width="1" points="392.29,-425.23 390.72,-414.76 385.42,-423.93 392.29,-425.23"/>
<text text-anchor="middle" x="394.5" y="-478.37" font-family="Times,serif" font-size="12.00">17m</text>
</g>
<!-- &#45;5867975218853566218&#45;&gt;&#45;1445525020333494103 -->
<g id="edge26" class="edge">
<title>&#45;5867975218853566218&#45;&gt;&#45;1445525020333494103</title>
<path fill="none" stroke="#0000fe" stroke-width="1.01" d="M406.86,-378.33C415.3,-368.12 427.13,-355.62 440,-347.47 452.02,-339.86 465.87,-333.73 479.48,-328.85"/>
<polygon fill="#0000fe" stroke="#0000fe" stroke-width="1.01" points="480.98,-332.04 489.33,-325.52 478.73,-325.41 480.98,-332.04"/>
<text text-anchor="middle" x="453.5" y="-350.87" font-family="Times,serif" font-size="12.00">24m</text>
</g>
<!-- &#45;5867975218853566218&#45;&gt;4567080983048491761 -->
<g id="edge27" class="edge">
<title>&#45;5867975218853566218&#45;&gt;4567080983048491761</title>
<path fill="none" stroke="#0b00f3" stroke-width="1.07" d="M362.44,-378.41C352.58,-372.87 341.73,-366.58 332,-360.47 319.69,-352.74 306.51,-343.75 295.01,-335.67"/>
<polygon fill="#0b00f3" stroke="#0b00f3" stroke-width="1.07" points="296.76,-332.62 286.58,-329.69 292.71,-338.33 296.76,-332.62"/>
<text text-anchor="middle" x="340" y="-350.87" font-family="Times,serif" font-size="12.00">4h</text>
</g>
<!-- &#45;5867975218853566218&#45;&gt;991227552401406763 -->
<g id="edge28" class="edge">
<title>&#45;5867975218853566218&#45;&gt;991227552401406763</title>
<path fill="none" stroke="#0300fb" stroke-width="1.02" d="M399.27,-378.43C408.3,-349.25 426.81,-289.48 437.62,-254.53"/>
<polygon fill="#0300fb" stroke="#0300fb" stroke-width="1.02" points="441.1,-255.13 440.71,-244.55 434.41,-253.06 441.1,-255.13"/>
<text text-anchor="middle" x="434" y="-308.37" font-family="Times,serif" font-size="12.00">1h</text>
</g>
<!-- &#45;7157926008317320733&#45;&gt;5363965635316695550 -->
<g id="edge33" class="edge">
<title>&#45;7157926008317320733&#45;&gt;5363965635316695550</title>
<path fill="none" stroke="#0000fe" stroke-width="1" d="M115.6,-55.25C81.27,-71.39 40,-99.35 40,-140.47 40,-783.47 40,-783.47 40,-783.47 40,-802.37 44.05,-823.26 48.07,-839.35"/>
<polygon fill="#0000fe" stroke="#0000fe" stroke-width="1" points="44.73,-840.4 50.67,-849.17 51.5,-838.6 44.73,-840.4"/>
<text text-anchor="middle" x="53.5" y="-435.87" font-family="Times,serif" font-size="12.00">11m</text>
</g>
<!-- @@startnode -->
<g id="node20" class="node">
<title>@@startnode</title>
<ellipse fill="none" stroke="black" cx="56" cy="-1040.7" rx="33.47" ry="33.47"/>
<text text-anchor="start" x="40.5" y="-1032" font-family="Times,serif" font-size="34.00">●</text>
</g>
<!-- @@startnode&#45;&gt;7855491736051450785 -->
<g id="edge35" class="edge">
<title>@@startnode&#45;&gt;7855491736051450785</title>
<path fill="none" stroke="black" d="M56,-1007.1C56,-998.38 56,-989.05 56,-980.66"/>
<polygon fill="black" stroke="black" points="59.5,-980.64 56,-970.64 52.5,-980.64 59.5,-980.64"/>
</g>
</g>
</svg>
