<?xml version="1.0" encoding="UTF-8" standalone="no"?>
<!DOCTYPE svg PUBLIC "-//W3C//DTD SVG 1.1//EN"
 "http://www.w3.org/Graphics/SVG/1.1/DTD/svg11.dtd">
<!-- Generated by graphviz version 2.43.0 (0)
 -->
<!-- Title: %3 Pages: 1 -->
<svg width="221pt" height="1124pt"
 viewBox="0.00 0.00 221.00 1124.00" xmlns="http://www.w3.org/2000/svg" xmlns:xlink="http://www.w3.org/1999/xlink">
<g id="graph0" class="graph" transform="scale(1 1) rotate(0) translate(4 1120)">
<title>%3</title>
<polygon fill="white" stroke="transparent" points="-4,4 -4,-1120 217,-1120 217,4 -4,4"/>
<!-- 281097147036688 -->
<g id="node1" class="node">
<title>281097147036688</title>
<ellipse fill="green" stroke="black" cx="106.5" cy="-1098" rx="18" ry="18"/>
</g>
<!-- 281097147030640 -->
<g id="node2" class="node">
<title>281097147030640</title>
<polygon fill="none" stroke="black" points="195.5,-1044 17.5,-1044 17.5,-1008 195.5,-1008 195.5,-1044"/>
<text text-anchor="middle" x="106.5" y="-1022.9" font-family="Times,serif" font-size="12.00">Purchase Order Submitted</text>
</g>
<!-- 281097147036688&#45;&gt;281097147030640 -->
<g id="edge1" class="edge">
<title>281097147036688&#45;&gt;281097147030640</title>
<path fill="none" stroke="black" d="M106.5,-1079.7C106.5,-1071.98 106.5,-1062.71 106.5,-1054.11"/>
<polygon fill="black" stroke="black" points="110,-1054.1 106.5,-1044.1 103,-1054.1 110,-1054.1"/>
</g>
<!-- 281097147037936 -->
<g id="node3" class="node">
<title>281097147037936</title>
<polygon fill="none" stroke="black" points="175,-972 38,-972 38,-936 175,-936 175,-972"/>
<text text-anchor="middle" x="106.5" y="-950.9" font-family="Times,serif" font-size="12.00">Quote Confirmation</text>
</g>
<!-- 281097147030640&#45;&gt;281097147037936 -->
<g id="edge2" class="edge">
<title>281097147030640&#45;&gt;281097147037936</title>
<path fill="none" stroke="black" d="M106.5,-1007.7C106.5,-999.98 106.5,-990.71 106.5,-982.11"/>
<polygon fill="black" stroke="black" points="110,-982.1 106.5,-972.1 103,-982.1 110,-982.1"/>
</g>
<!-- 281097147027424 -->
<g id="node4" class="node">
<title>281097147027424</title>
<polygon fill="none" stroke="black" points="210,-900 3,-900 3,-864 210,-864 210,-900"/>
<text text-anchor="middle" x="106.5" y="-878.9" font-family="Times,serif" font-size="12.00">Order Approved for Production</text>
</g>
<!-- 281097147037936&#45;&gt;281097147027424 -->
<g id="edge3" class="edge">
<title>281097147037936&#45;&gt;281097147027424</title>
<path fill="none" stroke="black" d="M106.5,-935.7C106.5,-927.98 106.5,-918.71 106.5,-910.11"/>
<polygon fill="black" stroke="black" points="110,-910.1 106.5,-900.1 103,-910.1 110,-910.1"/>
</g>
<!-- 281097147023680 -->
<g id="node5" class="node">
<title>281097147023680</title>
<polygon fill="none" stroke="black" points="172.5,-828 40.5,-828 40.5,-792 172.5,-792 172.5,-828"/>
<text text-anchor="middle" x="106.5" y="-806.9" font-family="Times,serif" font-size="12.00">Production Started</text>
</g>
<!-- 281097147027424&#45;&gt;281097147023680 -->
<g id="edge4" class="edge">
<title>281097147027424&#45;&gt;281097147023680</title>
<path fill="none" stroke="black" d="M106.5,-863.7C106.5,-855.98 106.5,-846.71 106.5,-838.11"/>
<polygon fill="black" stroke="black" points="110,-838.1 106.5,-828.1 103,-838.1 110,-838.1"/>
</g>
<!-- 281097146053120 -->
<g id="node6" class="node">
<title>281097146053120</title>
<polygon fill="none" stroke="black" points="179.5,-756 33.5,-756 33.5,-720 179.5,-720 179.5,-756"/>
<text text-anchor="middle" x="106.5" y="-734.9" font-family="Times,serif" font-size="12.00">QC Inspection Report</text>
</g>
<!-- 281097147023680&#45;&gt;281097146053120 -->
<g id="edge5" class="edge">
<title>281097147023680&#45;&gt;281097146053120</title>
<path fill="none" stroke="black" d="M106.5,-791.7C106.5,-783.98 106.5,-774.71 106.5,-766.11"/>
<polygon fill="black" stroke="black" points="110,-766.1 106.5,-756.1 103,-766.1 110,-766.1"/>
</g>
<!-- 281097146051008 -->
<g id="node7" class="node">
<title>281097146051008</title>
<polygon fill="none" stroke="black" points="176.5,-684 36.5,-684 36.5,-648 176.5,-648 176.5,-684"/>
<text text-anchor="middle" x="106.5" y="-662.9" font-family="Times,serif" font-size="12.00">Shipment Scheduled</text>
</g>
<!-- 281097146053120&#45;&gt;281097146051008 -->
<g id="edge6" class="edge">
<title>281097146053120&#45;&gt;281097146051008</title>
<path fill="none" stroke="black" d="M106.5,-719.7C106.5,-711.98 106.5,-702.71 106.5,-694.11"/>
<polygon fill="black" stroke="black" points="110,-694.1 106.5,-684.1 103,-694.1 110,-694.1"/>
</g>
<!-- 281097146054800 -->
<g id="node8" class="node">
<title>281097146054800</title>
<polygon fill="none" stroke="black" points="172.5,-612 40.5,-612 40.5,-576 172.5,-576 172.5,-612"/>
<text text-anchor="middle" x="106.5" y="-590.9" font-family="Times,serif" font-size="12.00">Loaded onto Truck</text>
</g>
<!-- 281097146051008&#45;&gt;281097146054800 -->
<g id="edge7" class="edge">
<title>281097146051008&#45;&gt;281097146054800</title>
<path fill="none" stroke="black" d="M106.5,-647.7C106.5,-639.98 106.5,-630.71 106.5,-622.11"/>
<polygon fill="black" stroke="black" points="110,-622.1 106.5,-612.1 103,-622.1 110,-622.1"/>
</g>
<!-- 281097146053552 -->
<g id="node9" class="node">
<title>281097146053552</title>
<polygon fill="none" stroke="black" points="166,-540 47,-540 47,-504 166,-504 166,-540"/>
<text text-anchor="middle" x="106.5" y="-518.9" font-family="Times,serif" font-size="12.00">Delivery Delayed</text>
</g>
<!-- 281097146054800&#45;&gt;281097146053552 -->
<g id="edge8" class="edge">
<title>281097146054800&#45;&gt;281097146053552</title>
<path fill="none" stroke="black" d="M106.5,-575.7C106.5,-567.98 106.5,-558.71 106.5,-550.11"/>
<polygon fill="black" stroke="black" points="110,-550.1 106.5,-540.1 103,-550.1 110,-550.1"/>
</g>
<!-- 281097146051776 -->
<g id="node10" class="node">
<title>281097146051776</title>
<polygon fill="none" stroke="black" points="159,-468 54,-468 54,-432 159,-432 159,-468"/>
<text text-anchor="middle" x="106.5" y="-446.9" font-family="Times,serif" font-size="12.00">Order Delayed</text>
</g>
<!-- 281097146053552&#45;&gt;281097146051776 -->
<g id="edge9" class="edge">
<title>281097146053552&#45;&gt;281097146051776</title>
<path fill="none" stroke="black" d="M106.5,-503.7C106.5,-495.98 106.5,-486.71 106.5,-478.11"/>
<polygon fill="black" stroke="black" points="110,-478.1 106.5,-468.1 103,-478.1 110,-478.1"/>
</g>
<!-- 281097146053072 -->
<g id="node11" class="node">
<title>281097146053072</title>
<polygon fill="none" stroke="black" points="173.5,-396 39.5,-396 39.5,-360 173.5,-360 173.5,-396"/>
<text text-anchor="middle" x="106.5" y="-374.9" font-family="Times,serif" font-size="12.00">Delivery Confirmed</text>
</g>
<!-- 281097146051776&#45;&gt;281097146053072 -->
<g id="edge10" class="edge">
<title>281097146051776&#45;&gt;281097146053072</title>
<path fill="none" stroke="black" d="M106.5,-431.7C106.5,-423.98 106.5,-414.71 106.5,-406.11"/>
<polygon fill="black" stroke="black" points="110,-406.1 106.5,-396.1 103,-406.1 110,-406.1"/>
</g>
<!-- 281097146050144 -->
<g id="node12" class="node">
<title>281097146050144</title>
<polygon fill="none" stroke="black" points="193,-324 20,-324 20,-288 193,-288 193,-324"/>
<text text-anchor="middle" x="106.5" y="-302.9" font-family="Times,serif" font-size="12.00">Delivery Delay Confirmed</text>
</g>
<!-- 281097146053072&#45;&gt;281097146050144 -->
<g id="edge11" class="edge">
<title>281097146053072&#45;&gt;281097146050144</title>
<path fill="none" stroke="black" d="M106.5,-359.7C106.5,-351.98 106.5,-342.71 106.5,-334.11"/>
<polygon fill="black" stroke="black" points="110,-334.1 106.5,-324.1 103,-334.1 110,-334.1"/>
</g>
<!-- 281097146050672 -->
<g id="node13" class="node">
<title>281097146050672</title>
<polygon fill="none" stroke="black" points="201.5,-252 11.5,-252 11.5,-216 201.5,-216 201.5,-252"/>
<text text-anchor="middle" x="106.5" y="-230.9" font-family="Times,serif" font-size="12.00">Foundation Footers Installed</text>
</g>
<!-- 281097146050144&#45;&gt;281097146050672 -->
<g id="edge12" class="edge">
<title>281097146050144&#45;&gt;281097146050672</title>
<path fill="none" stroke="black" d="M106.5,-287.7C106.5,-279.98 106.5,-270.71 106.5,-262.11"/>
<polygon fill="black" stroke="black" points="110,-262.1 106.5,-252.1 103,-262.1 110,-262.1"/>
</g>
<!-- 281097146052976 -->
<g id="node14" class="node">
<title>281097146052976</title>
<polygon fill="none" stroke="black" points="213,-180 0,-180 0,-144 213,-144 213,-180"/>
<text text-anchor="middle" x="106.5" y="-158.9" font-family="Times,serif" font-size="12.00">Foundation Inspection Approved</text>
</g>
<!-- 281097146050672&#45;&gt;281097146052976 -->
<g id="edge13" class="edge">
<title>281097146050672&#45;&gt;281097146052976</title>
<path fill="none" stroke="black" d="M106.5,-215.7C106.5,-207.98 106.5,-198.71 106.5,-190.11"/>
<polygon fill="black" stroke="black" points="110,-190.1 106.5,-180.1 103,-190.1 110,-190.1"/>
</g>
<!-- 281097146043664 -->
<g id="node15" class="node">
<title>281097146043664</title>
<polygon fill="none" stroke="black" points="157.5,-108 55.5,-108 55.5,-72 157.5,-72 157.5,-108"/>
<text text-anchor="middle" x="106.5" y="-86.9" font-family="Times,serif" font-size="12.00">Invoice Issued</text>
</g>
<!-- 281097146052976&#45;&gt;281097146043664 -->
<g id="edge14" class="edge">
<title>281097146052976&#45;&gt;281097146043664</title>
<path fill="none" stroke="black" d="M106.5,-143.7C106.5,-135.98 106.5,-126.71 106.5,-118.11"/>
<polygon fill="black" stroke="black" points="110,-118.1 106.5,-108.1 103,-118.1 110,-118.1"/>
</g>
<!-- 281097147033664 -->
<g id="node16" class="node">
<title>281097147033664</title>
<ellipse fill="orange" stroke="black" cx="106.5" cy="-18" rx="18" ry="18"/>
</g>
<!-- 281097146043664&#45;&gt;281097147033664 -->
<g id="edge15" class="edge">
<title>281097146043664&#45;&gt;281097147033664</title>
<path fill="none" stroke="black" d="M106.5,-71.7C106.5,-63.98 106.5,-54.71 106.5,-46.11"/>
<polygon fill="black" stroke="black" points="110,-46.1 106.5,-36.1 103,-46.1 110,-46.1"/>
</g>
</g>
</svg>
