<?xml version="1.0" encoding="UTF-8" standalone="no"?>
<!DOCTYPE svg PUBLIC "-//W3C//DTD SVG 1.1//EN"
 "http://www.w3.org/Graphics/SVG/1.1/DTD/svg11.dtd">
<!-- Generated by graphviz version 2.43.0 (0)
 -->
<!-- Title: %3 Pages: 1 -->
<svg width="3052pt" height="82pt"
 viewBox="0.00 0.00 3051.94 82.47" xmlns="http://www.w3.org/2000/svg" xmlns:xlink="http://www.w3.org/1999/xlink">
<g id="graph0" class="graph" transform="scale(1 1) rotate(0) translate(4 78.47)">
<title>%3</title>
<polygon fill="white" stroke="transparent" points="-4,4 -4,-78.47 3047.94,-78.47 3047.94,4 -4,4"/>
<!-- 9076218632175360295 -->
<g id="node1" class="node">
<title>9076218632175360295</title>
<polygon fill="none" stroke="black" points="281.47,-55.23 103.47,-55.23 103.47,-19.23 281.47,-19.23 281.47,-55.23"/>
<text text-anchor="middle" x="192.47" y="-34.13" font-family="Times,serif" font-size="12.00">Purchase Order Submitted</text>
</g>
<!-- &#45;6309557132471350034 -->
<g id="node2" class="node">
<title>&#45;6309557132471350034</title>
<polygon fill="none" stroke="black" points="470.47,-55.23 333.47,-55.23 333.47,-19.23 470.47,-19.23 470.47,-55.23"/>
<text text-anchor="middle" x="401.97" y="-34.13" font-family="Times,serif" font-size="12.00">Quote Confirmation</text>
</g>
<!-- 9076218632175360295&#45;&gt;&#45;6309557132471350034 -->
<g id="edge1" class="edge">
<title>9076218632175360295&#45;&gt;&#45;6309557132471350034</title>
<path fill="none" stroke="#1c00e2" stroke-width="1.18" d="M281.77,-37.23C295.48,-37.23 309.56,-37.23 323.02,-37.23"/>
<polygon fill="#1c00e2" stroke="#1c00e2" stroke-width="1.18" points="323.18,-40.73 333.18,-37.23 323.18,-33.73 323.18,-40.73"/>
<text text-anchor="middle" x="307.47" y="-40.63" font-family="Times,serif" font-size="12.00">5h</text>
</g>
<!-- &#45;6722472106916484854 -->
<g id="node3" class="node">
<title>&#45;6722472106916484854</title>
<polygon fill="none" stroke="black" points="736.47,-55.23 529.47,-55.23 529.47,-19.23 736.47,-19.23 736.47,-55.23"/>
<text text-anchor="middle" x="632.97" y="-34.13" font-family="Times,serif" font-size="12.00">Order Approved for Production</text>
</g>
<!-- &#45;6309557132471350034&#45;&gt;&#45;6722472106916484854 -->
<g id="edge2" class="edge">
<title>&#45;6309557132471350034&#45;&gt;&#45;6722472106916484854</title>
<path fill="none" stroke="#64009a" stroke-width="1.64" d="M470.75,-37.23C485.93,-37.23 502.43,-37.23 518.9,-37.23"/>
<polygon fill="#64009a" stroke="#64009a" stroke-width="1.64" points="519.13,-40.73 529.13,-37.23 519.13,-33.73 519.13,-40.73"/>
<text text-anchor="middle" x="499.97" y="-40.63" font-family="Times,serif" font-size="12.00">18h</text>
</g>
<!-- 9211802696541496642 -->
<g id="node4" class="node">
<title>9211802696541496642</title>
<polygon fill="none" stroke="black" points="927.47,-55.23 795.47,-55.23 795.47,-19.23 927.47,-19.23 927.47,-55.23"/>
<text text-anchor="middle" x="861.47" y="-34.13" font-family="Times,serif" font-size="12.00">Production Started</text>
</g>
<!-- &#45;6722472106916484854&#45;&gt;9211802696541496642 -->
<g id="edge3" class="edge">
<title>&#45;6722472106916484854&#45;&gt;9211802696541496642</title>
<path fill="none" stroke="#780086" stroke-width="1.76" d="M736.61,-37.23C753.03,-37.23 769.75,-37.23 785.37,-37.23"/>
<polygon fill="#780086" stroke="#780086" stroke-width="1.76" points="785.47,-40.73 795.47,-37.23 785.47,-33.73 785.47,-40.73"/>
<text text-anchor="middle" x="765.97" y="-40.63" font-family="Times,serif" font-size="12.00">21h</text>
</g>
<!-- &#45;257823578152294650 -->
<g id="node5" class="node">
<title>&#45;257823578152294650</title>
<polygon fill="none" stroke="black" points="1127.47,-55.23 981.47,-55.23 981.47,-19.23 1127.47,-19.23 1127.47,-55.23"/>
<text text-anchor="middle" x="1054.47" y="-34.13" font-family="Times,serif" font-size="12.00">QC Inspection Report</text>
</g>
<!-- 9211802696541496642&#45;&gt;&#45;257823578152294650 -->
<g id="edge4" class="edge">
<title>9211802696541496642&#45;&gt;&#45;257823578152294650</title>
<path fill="none" stroke="#b60048" stroke-width="2.15" d="M927.67,-37.23C941.71,-37.23 956.74,-37.23 971.34,-37.23"/>
<polygon fill="#b60048" stroke="#b60048" stroke-width="2.15" points="971.36,-40.73 981.36,-37.23 971.36,-33.73 971.36,-40.73"/>
<text text-anchor="middle" x="954.47" y="-40.63" font-family="Times,serif" font-size="12.00">1D</text>
</g>
<!-- &#45;2332445216433733546 -->
<g id="node6" class="node">
<title>&#45;2332445216433733546</title>
<polygon fill="none" stroke="black" points="1326.47,-55.23 1186.47,-55.23 1186.47,-19.23 1326.47,-19.23 1326.47,-55.23"/>
<text text-anchor="middle" x="1256.47" y="-34.13" font-family="Times,serif" font-size="12.00">Shipment Scheduled</text>
</g>
<!-- &#45;257823578152294650&#45;&gt;&#45;2332445216433733546 -->
<g id="edge5" class="edge">
<title>&#45;257823578152294650&#45;&gt;&#45;2332445216433733546</title>
<path fill="none" stroke="#6d0091" stroke-width="1.69" d="M1127.67,-37.23C1143.37,-37.23 1160.06,-37.23 1176.01,-37.23"/>
<polygon fill="#6d0091" stroke="#6d0091" stroke-width="1.69" points="1176.38,-40.73 1186.38,-37.23 1176.38,-33.73 1176.38,-40.73"/>
<text text-anchor="middle" x="1156.97" y="-40.63" font-family="Times,serif" font-size="12.00">19h</text>
</g>
<!-- 5332329727705121048 -->
<g id="node7" class="node">
<title>5332329727705121048</title>
<polygon fill="none" stroke="black" points="1517.47,-55.23 1385.47,-55.23 1385.47,-19.23 1517.47,-19.23 1517.47,-55.23"/>
<text text-anchor="middle" x="1451.47" y="-34.13" font-family="Times,serif" font-size="12.00">Loaded onto Truck</text>
</g>
<!-- &#45;2332445216433733546&#45;&gt;5332329727705121048 -->
<g id="edge6" class="edge">
<title>&#45;2332445216433733546&#45;&gt;5332329727705121048</title>
<path fill="none" stroke="#70008e" stroke-width="1.71" d="M1326.6,-37.23C1342.31,-37.23 1359.06,-37.23 1375.02,-37.23"/>
<polygon fill="#70008e" stroke="#70008e" stroke-width="1.71" points="1375.36,-40.73 1385.36,-37.23 1375.36,-33.73 1375.36,-40.73"/>
<text text-anchor="middle" x="1355.97" y="-40.63" font-family="Times,serif" font-size="12.00">20h</text>
</g>
<!-- &#45;3304176906226095080 -->
<g id="node8" class="node">
<title>&#45;3304176906226095080</title>
<polygon fill="none" stroke="black" points="1688.47,-55.23 1569.47,-55.23 1569.47,-19.23 1688.47,-19.23 1688.47,-55.23"/>
<text text-anchor="middle" x="1628.97" y="-34.13" font-family="Times,serif" font-size="12.00">Delivery Delayed</text>
</g>
<!-- 5332329727705121048&#45;&gt;&#45;3304176906226095080 -->
<g id="edge7" class="edge">
<title>5332329727705121048&#45;&gt;&#45;3304176906226095080</title>
<path fill="none" stroke="#2500d9" stroke-width="1.24" d="M1517.82,-37.23C1531.25,-37.23 1545.44,-37.23 1559,-37.23"/>
<polygon fill="#2500d9" stroke="#2500d9" stroke-width="1.24" points="1559.22,-40.73 1569.22,-37.23 1559.22,-33.73 1559.22,-40.73"/>
<text text-anchor="middle" x="1543.47" y="-40.63" font-family="Times,serif" font-size="12.00">6h</text>
</g>
<!-- &#45;2853046859372470595 -->
<g id="node9" class="node">
<title>&#45;2853046859372470595</title>
<polygon fill="none" stroke="black" points="1847.47,-55.23 1742.47,-55.23 1742.47,-19.23 1847.47,-19.23 1847.47,-55.23"/>
<text text-anchor="middle" x="1794.97" y="-34.13" font-family="Times,serif" font-size="12.00">Order Delayed</text>
</g>
<!-- &#45;3304176906226095080&#45;&gt;&#45;2853046859372470595 -->
<g id="edge8" class="edge">
<title>&#45;3304176906226095080&#45;&gt;&#45;2853046859372470595</title>
<path fill="none" stroke="#fe0000" stroke-width="2.6" d="M1688.71,-37.23C1702.84,-37.23 1717.97,-37.23 1732.23,-37.23"/>
<polygon fill="#fe0000" stroke="#fe0000" stroke-width="2.6" points="1732.43,-40.73 1742.43,-37.23 1732.43,-33.73 1732.43,-40.73"/>
<text text-anchor="middle" x="1715.47" y="-40.63" font-family="Times,serif" font-size="12.00">1D</text>
</g>
<!-- 3005095361485297306 -->
<g id="node10" class="node">
<title>3005095361485297306</title>
<polygon fill="none" stroke="black" points="2033.47,-55.23 1899.47,-55.23 1899.47,-19.23 2033.47,-19.23 2033.47,-55.23"/>
<text text-anchor="middle" x="1966.47" y="-34.13" font-family="Times,serif" font-size="12.00">Delivery Confirmed</text>
</g>
<!-- &#45;2853046859372470595&#45;&gt;3005095361485297306 -->
<g id="edge9" class="edge">
<title>&#45;2853046859372470595&#45;&gt;3005095361485297306</title>
<path fill="none" stroke="#0700f7" stroke-width="1.05" d="M1847.74,-37.23C1860.83,-37.23 1875.15,-37.23 1889.17,-37.23"/>
<polygon fill="#0700f7" stroke="#0700f7" stroke-width="1.05" points="1889.29,-40.73 1899.29,-37.23 1889.29,-33.73 1889.29,-40.73"/>
<text text-anchor="middle" x="1873.47" y="-40.63" font-family="Times,serif" font-size="12.00">1h</text>
</g>
<!-- &#45;1165510402423555464 -->
<g id="node11" class="node">
<title>&#45;1165510402423555464</title>
<polygon fill="none" stroke="black" points="2269.47,-55.23 2096.47,-55.23 2096.47,-19.23 2269.47,-19.23 2269.47,-55.23"/>
<text text-anchor="middle" x="2182.97" y="-34.13" font-family="Times,serif" font-size="12.00">Delivery Delay Confirmed</text>
</g>
<!-- 3005095361485297306&#45;&gt;&#45;1165510402423555464 -->
<g id="edge10" class="edge">
<title>3005095361485297306&#45;&gt;&#45;1165510402423555464</title>
<path fill="none" stroke="#0000ff" stroke-width="1.01" d="M2033.58,-37.23C2050.14,-37.23 2068.25,-37.23 2085.95,-37.23"/>
<polygon fill="#0000ff" stroke="#0000ff" stroke-width="1.01" points="2086.31,-40.73 2096.31,-37.23 2086.31,-33.73 2086.31,-40.73"/>
<text text-anchor="middle" x="2064.97" y="-40.63" font-family="Times,serif" font-size="12.00">12m</text>
</g>
<!-- &#45;5654772780697812656 -->
<g id="node12" class="node">
<title>&#45;5654772780697812656</title>
<polygon fill="none" stroke="black" points="2511.47,-55.23 2321.47,-55.23 2321.47,-19.23 2511.47,-19.23 2511.47,-55.23"/>
<text text-anchor="middle" x="2416.47" y="-34.13" font-family="Times,serif" font-size="12.00">Foundation Footers Installed</text>
</g>
<!-- &#45;1165510402423555464&#45;&gt;&#45;5654772780697812656 -->
<g id="edge11" class="edge">
<title>&#45;1165510402423555464&#45;&gt;&#45;5654772780697812656</title>
<path fill="none" stroke="#1200ec" stroke-width="1.12" d="M2269.51,-37.23C2283.09,-37.23 2297.26,-37.23 2311.21,-37.23"/>
<polygon fill="#1200ec" stroke="#1200ec" stroke-width="1.12" points="2311.32,-40.73 2321.32,-37.23 2311.32,-33.73 2311.32,-40.73"/>
<text text-anchor="middle" x="2295.47" y="-40.63" font-family="Times,serif" font-size="12.00">3h</text>
</g>
<!-- &#45;4189722848135168784 -->
<g id="node13" class="node">
<title>&#45;4189722848135168784</title>
<polygon fill="none" stroke="black" points="2778.47,-55.23 2565.47,-55.23 2565.47,-19.23 2778.47,-19.23 2778.47,-55.23"/>
<text text-anchor="middle" x="2671.97" y="-34.13" font-family="Times,serif" font-size="12.00">Foundation Inspection Approved</text>
</g>
<!-- &#45;5654772780697812656&#45;&gt;&#45;4189722848135168784 -->
<g id="edge12" class="edge">
<title>&#45;5654772780697812656&#45;&gt;&#45;4189722848135168784</title>
<path fill="none" stroke="#e3001b" stroke-width="2.43" d="M2511.5,-37.23C2525.7,-37.23 2540.48,-37.23 2555.07,-37.23"/>
<polygon fill="#e3001b" stroke="#e3001b" stroke-width="2.43" points="2555.13,-40.73 2565.13,-37.23 2555.13,-33.73 2555.13,-40.73"/>
<text text-anchor="middle" x="2538.47" y="-40.63" font-family="Times,serif" font-size="12.00">1D</text>
</g>
<!-- 1802091417922869655 -->
<g id="node14" class="node">
<title>1802091417922869655</title>
<polygon fill="none" stroke="black" points="2932.47,-55.23 2830.47,-55.23 2830.47,-19.23 2932.47,-19.23 2932.47,-55.23"/>
<text text-anchor="middle" x="2881.47" y="-34.13" font-family="Times,serif" font-size="12.00">Invoice Issued</text>
</g>
<!-- &#45;4189722848135168784&#45;&gt;1802091417922869655 -->
<g id="edge13" class="edge">
<title>&#45;4189722848135168784&#45;&gt;1802091417922869655</title>
<path fill="none" stroke="#2100dd" stroke-width="1.22" d="M2778.54,-37.23C2792.76,-37.23 2806.94,-37.23 2820,-37.23"/>
<polygon fill="#2100dd" stroke="#2100dd" stroke-width="1.22" points="2820.21,-40.73 2830.21,-37.23 2820.21,-33.73 2820.21,-40.73"/>
<text text-anchor="middle" x="2804.47" y="-40.63" font-family="Times,serif" font-size="12.00">6h</text>
</g>
<!-- @@endnode -->
<g id="node16" class="node">
<title>@@endnode</title>
<ellipse fill="none" stroke="black" cx="3006.7" cy="-37.23" rx="33.44" ry="33.44"/>
<ellipse fill="none" stroke="black" cx="3006.7" cy="-37.23" rx="37.47" ry="37.47"/>
<text text-anchor="start" x="2991.2" y="-29.13" font-family="Times,serif" font-size="32.00">■</text>
</g>
<!-- 1802091417922869655&#45;&gt;@@endnode -->
<g id="edge15" class="edge">
<title>1802091417922869655&#45;&gt;@@endnode</title>
<path fill="none" stroke="black" d="M2932.59,-37.23C2941.31,-37.23 2950.34,-37.23 2958.97,-37.23"/>
<polygon fill="black" stroke="black" points="2959.23,-40.73 2969.23,-37.23 2959.23,-33.73 2959.23,-40.73"/>
</g>
<!-- @@startnode -->
<g id="node15" class="node">
<title>@@startnode</title>
<ellipse fill="none" stroke="black" cx="33.23" cy="-37.23" rx="33.47" ry="33.47"/>
<text text-anchor="start" x="17.73" y="-28.53" font-family="Times,serif" font-size="34.00">●</text>
</g>
<!-- @@startnode&#45;&gt;9076218632175360295 -->
<g id="edge14" class="edge">
<title>@@startnode&#45;&gt;9076218632175360295</title>
<path fill="none" stroke="black" d="M66.81,-37.23C74.89,-37.23 83.97,-37.23 93.45,-37.23"/>
<polygon fill="black" stroke="black" points="93.45,-40.73 103.45,-37.23 93.45,-33.73 93.45,-40.73"/>
</g>
</g>
</svg>
