<?xml version="1.0" encoding="UTF-8" standalone="no"?>
<!DOCTYPE svg PUBLIC "-//W3C//DTD SVG 1.1//EN"
 "http://www.w3.org/Graphics/SVG/1.1/DTD/svg11.dtd">
<!-- Generated by graphviz version 2.43.0 (0)
 -->
<!-- Title: imdf_net_1766334803.080404 Pages: 1 -->
<svg width="3942pt" height="70pt"
 viewBox="0.00 0.00 3942.00 70.00" xmlns="http://www.w3.org/2000/svg" xmlns:xlink="http://www.w3.org/1999/xlink">
<g id="graph0" class="graph" transform="scale(1 1) rotate(0) translate(4 66)">
<title>imdf_net_1766334803.080404</title>
<polygon fill="white" stroke="transparent" points="-4,4 -4,-66 3938,-66 3938,4 -4,4"/>
<!-- 268227379437184 -->
<g id="node1" class="node">
<title>268227379437184</title>
<polygon fill="white" stroke="black" points="268,-49 90,-49 90,-13 268,-13 268,-49"/>
<text text-anchor="middle" x="179" y="-27.9" font-family="Times,serif" font-size="12.00">Purchase Order Submitted</text>
</g>
<!-- 268227379439536 -->
<g id="node16" class="node">
<title>268227379439536</title>
<ellipse fill="white" stroke="black" cx="331" cy="-31" rx="27" ry="27"/>
</g>
<!-- 268227379437184&#45;&gt;268227379439536 -->
<g id="edge2" class="edge">
<title>268227379437184&#45;&gt;268227379439536</title>
<path fill="none" stroke="black" d="M268.12,-31C277.07,-31 285.75,-31 293.65,-31"/>
<polygon fill="black" stroke="black" points="293.89,-34.5 303.89,-31 293.89,-27.5 293.89,-34.5"/>
</g>
<!-- 268227379437808 -->
<g id="node2" class="node">
<title>268227379437808</title>
<polygon fill="white" stroke="black" points="531,-49 394,-49 394,-13 531,-13 531,-49"/>
<text text-anchor="middle" x="462.5" y="-27.9" font-family="Times,serif" font-size="12.00">Quote Confirmation</text>
</g>
<!-- 268227456411424 -->
<g id="node17" class="node">
<title>268227456411424</title>
<ellipse fill="white" stroke="black" cx="594" cy="-31" rx="27" ry="27"/>
</g>
<!-- 268227379437808&#45;&gt;268227456411424 -->
<g id="edge4" class="edge">
<title>268227379437808&#45;&gt;268227456411424</title>
<path fill="none" stroke="black" d="M531.28,-31C540.05,-31 548.74,-31 556.71,-31"/>
<polygon fill="black" stroke="black" points="556.73,-34.5 566.73,-31 556.73,-27.5 556.73,-34.5"/>
</g>
<!-- 268227379437952 -->
<g id="node3" class="node">
<title>268227379437952</title>
<polygon fill="white" stroke="black" points="864,-49 657,-49 657,-13 864,-13 864,-49"/>
<text text-anchor="middle" x="760.5" y="-27.9" font-family="Times,serif" font-size="12.00">Order Approved for Production</text>
</g>
<!-- 268227379439200 -->
<g id="node18" class="node">
<title>268227379439200</title>
<ellipse fill="white" stroke="black" cx="927" cy="-31" rx="27" ry="27"/>
</g>
<!-- 268227379437952&#45;&gt;268227379439200 -->
<g id="edge6" class="edge">
<title>268227379437952&#45;&gt;268227379439200</title>
<path fill="none" stroke="black" d="M864.28,-31C873.3,-31 881.96,-31 889.81,-31"/>
<polygon fill="black" stroke="black" points="889.95,-34.5 899.95,-31 889.95,-27.5 889.95,-34.5"/>
</g>
<!-- 268227379438144 -->
<g id="node4" class="node">
<title>268227379438144</title>
<polygon fill="white" stroke="black" points="1122,-49 990,-49 990,-13 1122,-13 1122,-49"/>
<text text-anchor="middle" x="1056" y="-27.9" font-family="Times,serif" font-size="12.00">Production Started</text>
</g>
<!-- 268227379439296 -->
<g id="node19" class="node">
<title>268227379439296</title>
<ellipse fill="white" stroke="black" cx="1185" cy="-31" rx="27" ry="27"/>
</g>
<!-- 268227379438144&#45;&gt;268227379439296 -->
<g id="edge8" class="edge">
<title>268227379438144&#45;&gt;268227379439296</title>
<path fill="none" stroke="black" d="M1122.36,-31C1131.15,-31 1139.89,-31 1147.91,-31"/>
<polygon fill="black" stroke="black" points="1147.98,-34.5 1157.98,-31 1147.98,-27.5 1147.98,-34.5"/>
</g>
<!-- 268227379438384 -->
<g id="node5" class="node">
<title>268227379438384</title>
<polygon fill="white" stroke="black" points="1394,-49 1248,-49 1248,-13 1394,-13 1394,-49"/>
<text text-anchor="middle" x="1321" y="-27.9" font-family="Times,serif" font-size="12.00">QC Inspection Report</text>
</g>
<!-- 268227379438192 -->
<g id="node20" class="node">
<title>268227379438192</title>
<ellipse fill="white" stroke="black" cx="1457" cy="-31" rx="27" ry="27"/>
</g>
<!-- 268227379438384&#45;&gt;268227379438192 -->
<g id="edge10" class="edge">
<title>268227379438384&#45;&gt;268227379438192</title>
<path fill="none" stroke="black" d="M1394.1,-31C1402.97,-31 1411.73,-31 1419.73,-31"/>
<polygon fill="black" stroke="black" points="1419.77,-34.5 1429.77,-31 1419.77,-27.5 1419.77,-34.5"/>
</g>
<!-- 268227379438528 -->
<g id="node6" class="node">
<title>268227379438528</title>
<polygon fill="white" stroke="black" points="1660,-49 1520,-49 1520,-13 1660,-13 1660,-49"/>
<text text-anchor="middle" x="1590" y="-27.9" font-family="Times,serif" font-size="12.00">Shipment Scheduled</text>
</g>
<!-- 268227379438432 -->
<g id="node21" class="node">
<title>268227379438432</title>
<ellipse fill="white" stroke="black" cx="1723" cy="-31" rx="27" ry="27"/>
</g>
<!-- 268227379438528&#45;&gt;268227379438432 -->
<g id="edge12" class="edge">
<title>268227379438528&#45;&gt;268227379438432</title>
<path fill="none" stroke="black" d="M1660.34,-31C1669.13,-31 1677.82,-31 1685.79,-31"/>
<polygon fill="black" stroke="black" points="1685.8,-34.5 1695.8,-31 1685.8,-27.5 1685.8,-34.5"/>
</g>
<!-- 268227379438720 -->
<g id="node7" class="node">
<title>268227379438720</title>
<polygon fill="white" stroke="black" points="1918,-49 1786,-49 1786,-13 1918,-13 1918,-49"/>
<text text-anchor="middle" x="1852" y="-27.9" font-family="Times,serif" font-size="12.00">Loaded onto Truck</text>
</g>
<!-- 268227379438576 -->
<g id="node22" class="node">
<title>268227379438576</title>
<ellipse fill="white" stroke="black" cx="1981" cy="-31" rx="27" ry="27"/>
</g>
<!-- 268227379438720&#45;&gt;268227379438576 -->
<g id="edge14" class="edge">
<title>268227379438720&#45;&gt;268227379438576</title>
<path fill="none" stroke="black" d="M1918.36,-31C1927.15,-31 1935.89,-31 1943.91,-31"/>
<polygon fill="black" stroke="black" points="1943.98,-34.5 1953.98,-31 1943.98,-27.5 1943.98,-34.5"/>
</g>
<!-- 268227379437328 -->
<g id="node8" class="node">
<title>268227379437328</title>
<polygon fill="white" stroke="black" points="2163,-49 2044,-49 2044,-13 2163,-13 2163,-49"/>
<text text-anchor="middle" x="2103.5" y="-27.9" font-family="Times,serif" font-size="12.00">Delivery Delayed</text>
</g>
<!-- 268227379437376 -->
<g id="node23" class="node">
<title>268227379437376</title>
<ellipse fill="white" stroke="black" cx="2226" cy="-31" rx="27" ry="27"/>
</g>
<!-- 268227379437328&#45;&gt;268227379437376 -->
<g id="edge16" class="edge">
<title>268227379437328&#45;&gt;268227379437376</title>
<path fill="none" stroke="black" d="M2163.34,-31C2171.98,-31 2180.66,-31 2188.66,-31"/>
<polygon fill="black" stroke="black" points="2188.74,-34.5 2198.74,-31 2188.74,-27.5 2188.74,-34.5"/>
</g>
<!-- 268227379438912 -->
<g id="node9" class="node">
<title>268227379438912</title>
<polygon fill="white" stroke="black" points="2394,-49 2289,-49 2289,-13 2394,-13 2394,-49"/>
<text text-anchor="middle" x="2341.5" y="-27.9" font-family="Times,serif" font-size="12.00">Order Delayed</text>
</g>
<!-- 268227379437040 -->
<g id="node24" class="node">
<title>268227379437040</title>
<ellipse fill="white" stroke="black" cx="2457" cy="-31" rx="27" ry="27"/>
</g>
<!-- 268227379438912&#45;&gt;268227379437040 -->
<g id="edge18" class="edge">
<title>268227379438912&#45;&gt;268227379437040</title>
<path fill="none" stroke="black" d="M2394.27,-31C2402.8,-31 2411.49,-31 2419.55,-31"/>
<polygon fill="black" stroke="black" points="2419.72,-34.5 2429.72,-31 2419.72,-27.5 2419.72,-34.5"/>
</g>
<!-- 268227379436896 -->
<g id="node10" class="node">
<title>268227379436896</title>
<polygon fill="white" stroke="black" points="2654,-49 2520,-49 2520,-13 2654,-13 2654,-49"/>
<text text-anchor="middle" x="2587" y="-27.9" font-family="Times,serif" font-size="12.00">Delivery Confirmed</text>
</g>
<!-- 268227379435456 -->
<g id="node25" class="node">
<title>268227379435456</title>
<ellipse fill="white" stroke="black" cx="2717" cy="-31" rx="27" ry="27"/>
</g>
<!-- 268227379436896&#45;&gt;268227379435456 -->
<g id="edge20" class="edge">
<title>268227379436896&#45;&gt;268227379435456</title>
<path fill="none" stroke="black" d="M2654.25,-31C2663.07,-31 2671.84,-31 2679.87,-31"/>
<polygon fill="black" stroke="black" points="2679.96,-34.5 2689.96,-31 2679.96,-27.5 2679.96,-34.5"/>
</g>
<!-- 268227379434976 -->
<g id="node11" class="node">
<title>268227379434976</title>
<polygon fill="white" stroke="black" points="2953,-49 2780,-49 2780,-13 2953,-13 2953,-49"/>
<text text-anchor="middle" x="2866.5" y="-27.9" font-family="Times,serif" font-size="12.00">Delivery Delay Confirmed</text>
</g>
<!-- 268227379436944 -->
<g id="node26" class="node">
<title>268227379436944</title>
<ellipse fill="white" stroke="black" cx="3016" cy="-31" rx="27" ry="27"/>
</g>
<!-- 268227379434976&#45;&gt;268227379436944 -->
<g id="edge22" class="edge">
<title>268227379434976&#45;&gt;268227379436944</title>
<path fill="none" stroke="black" d="M2953.3,-31C2962.19,-31 2970.84,-31 2978.71,-31"/>
<polygon fill="black" stroke="black" points="2978.92,-34.5 2988.92,-31 2978.92,-27.5 2978.92,-34.5"/>
</g>
<!-- 268227379435168 -->
<g id="node12" class="node">
<title>268227379435168</title>
<polygon fill="white" stroke="black" points="3269,-49 3079,-49 3079,-13 3269,-13 3269,-49"/>
<text text-anchor="middle" x="3174" y="-27.9" font-family="Times,serif" font-size="12.00">Foundation Footers Installed</text>
</g>
<!-- 268227379432576 -->
<g id="node27" class="node">
<title>268227379432576</title>
<ellipse fill="white" stroke="black" cx="3332" cy="-31" rx="27" ry="27"/>
</g>
<!-- 268227379435168&#45;&gt;268227379432576 -->
<g id="edge24" class="edge">
<title>268227379435168&#45;&gt;268227379432576</title>
<path fill="none" stroke="black" d="M3269.34,-31C3278.26,-31 3286.87,-31 3294.69,-31"/>
<polygon fill="black" stroke="black" points="3294.82,-34.5 3304.82,-31 3294.82,-27.5 3294.82,-34.5"/>
</g>
<!-- 268227379435504 -->
<g id="node13" class="node">
<title>268227379435504</title>
<polygon fill="white" stroke="black" points="3608,-49 3395,-49 3395,-13 3608,-13 3608,-49"/>
<text text-anchor="middle" x="3501.5" y="-27.9" font-family="Times,serif" font-size="12.00">Foundation Inspection Approved</text>
</g>
<!-- 268227379435264 -->
<g id="node28" class="node">
<title>268227379435264</title>
<ellipse fill="white" stroke="black" cx="3671" cy="-31" rx="27" ry="27"/>
</g>
<!-- 268227379435504&#45;&gt;268227379435264 -->
<g id="edge26" class="edge">
<title>268227379435504&#45;&gt;268227379435264</title>
<path fill="none" stroke="black" d="M3608.11,-31C3617.18,-31 3625.88,-31 3633.75,-31"/>
<polygon fill="black" stroke="black" points="3633.92,-34.5 3643.92,-31 3633.92,-27.5 3633.92,-34.5"/>
</g>
<!-- 268227379435888 -->
<g id="node14" class="node">
<title>268227379435888</title>
<polygon fill="white" stroke="black" points="3836,-49 3734,-49 3734,-13 3836,-13 3836,-49"/>
<text text-anchor="middle" x="3785" y="-27.9" font-family="Times,serif" font-size="12.00">Invoice Issued</text>
</g>
<!-- 268227379439440 -->
<g id="node29" class="node">
<title>268227379439440</title>
<ellipse fill="white" stroke="black" cx="3903" cy="-31" rx="27" ry="27"/>
<ellipse fill="none" stroke="black" cx="3903" cy="-31" rx="31" ry="31"/>
<text text-anchor="start" x="3887.5" y="-22.9" font-family="Times,serif" font-size="32.00">■</text>
</g>
<!-- 268227379435888&#45;&gt;268227379439440 -->
<g id="edge28" class="edge">
<title>268227379435888&#45;&gt;268227379439440</title>
<path fill="none" stroke="black" d="M3836.2,-31C3844.73,-31 3853.48,-31 3861.71,-31"/>
<polygon fill="black" stroke="black" points="3861.79,-34.5 3871.79,-31 3861.79,-27.5 3861.79,-34.5"/>
</g>
<!-- 268227433769264 -->
<g id="node15" class="node">
<title>268227433769264</title>
<ellipse fill="white" stroke="black" cx="27" cy="-31" rx="27" ry="27"/>
<text text-anchor="start" x="11.5" y="-22.3" font-family="Times,serif" font-size="34.00">●</text>
</g>
<!-- 268227433769264&#45;&gt;268227379437184 -->
<g id="edge1" class="edge">
<title>268227433769264&#45;&gt;268227379437184</title>
<path fill="none" stroke="black" d="M54.13,-31C61.65,-31 70.33,-31 79.54,-31"/>
<polygon fill="black" stroke="black" points="79.7,-34.5 89.7,-31 79.7,-27.5 79.7,-34.5"/>
</g>
<!-- 268227379439536&#45;&gt;268227379437808 -->
<g id="edge3" class="edge">
<title>268227379439536&#45;&gt;268227379437808</title>
<path fill="none" stroke="black" d="M358.21,-31C365.86,-31 374.64,-31 383.78,-31"/>
<polygon fill="black" stroke="black" points="383.81,-34.5 393.81,-31 383.81,-27.5 383.81,-34.5"/>
</g>
<!-- 268227456411424&#45;&gt;268227379437952 -->
<g id="edge5" class="edge">
<title>268227456411424&#45;&gt;268227379437952</title>
<path fill="none" stroke="black" d="M621.07,-31C628.66,-31 637.49,-31 646.93,-31"/>
<polygon fill="black" stroke="black" points="646.97,-34.5 656.97,-31 646.97,-27.5 646.97,-34.5"/>
</g>
<!-- 268227379439200&#45;&gt;268227379438144 -->
<g id="edge7" class="edge">
<title>268227379439200&#45;&gt;268227379438144</title>
<path fill="none" stroke="black" d="M954.01,-31C961.73,-31 970.62,-31 979.84,-31"/>
<polygon fill="black" stroke="black" points="979.94,-34.5 989.94,-31 979.94,-27.5 979.94,-34.5"/>
</g>
<!-- 268227379439296&#45;&gt;268227379438384 -->
<g id="edge9" class="edge">
<title>268227379439296&#45;&gt;268227379438384</title>
<path fill="none" stroke="black" d="M1212.15,-31C1219.82,-31 1228.63,-31 1237.85,-31"/>
<polygon fill="black" stroke="black" points="1237.98,-34.5 1247.98,-31 1237.98,-27.5 1237.98,-34.5"/>
</g>
<!-- 268227379438192&#45;&gt;268227379438528 -->
<g id="edge11" class="edge">
<title>268227379438192&#45;&gt;268227379438528</title>
<path fill="none" stroke="black" d="M1484.19,-31C1491.87,-31 1500.69,-31 1509.89,-31"/>
<polygon fill="black" stroke="black" points="1509.97,-34.5 1519.97,-31 1509.97,-27.5 1509.97,-34.5"/>
</g>
<!-- 268227379438432&#45;&gt;268227379438720 -->
<g id="edge13" class="edge">
<title>268227379438432&#45;&gt;268227379438720</title>
<path fill="none" stroke="black" d="M1750.01,-31C1757.73,-31 1766.62,-31 1775.84,-31"/>
<polygon fill="black" stroke="black" points="1775.94,-34.5 1785.94,-31 1775.94,-27.5 1775.94,-34.5"/>
</g>
<!-- 268227379438576&#45;&gt;268227379437328 -->
<g id="edge15" class="edge">
<title>268227379438576&#45;&gt;268227379437328</title>
<path fill="none" stroke="black" d="M2008.15,-31C2015.79,-31 2024.53,-31 2033.53,-31"/>
<polygon fill="black" stroke="black" points="2033.76,-34.5 2043.76,-31 2033.76,-27.5 2033.76,-34.5"/>
</g>
<!-- 268227379437376&#45;&gt;268227379438912 -->
<g id="edge17" class="edge">
<title>268227379437376&#45;&gt;268227379438912</title>
<path fill="none" stroke="black" d="M2253.04,-31C2260.74,-31 2269.53,-31 2278.49,-31"/>
<polygon fill="black" stroke="black" points="2278.63,-34.5 2288.63,-31 2278.63,-27.5 2278.63,-34.5"/>
</g>
<!-- 268227379437040&#45;&gt;268227379436896 -->
<g id="edge19" class="edge">
<title>268227379437040&#45;&gt;268227379436896</title>
<path fill="none" stroke="black" d="M2484.21,-31C2491.89,-31 2500.7,-31 2509.86,-31"/>
<polygon fill="black" stroke="black" points="2509.89,-34.5 2519.89,-31 2509.89,-27.5 2509.89,-34.5"/>
</g>
<!-- 268227379435456&#45;&gt;268227379434976 -->
<g id="edge21" class="edge">
<title>268227379435456&#45;&gt;268227379434976</title>
<path fill="none" stroke="black" d="M2744.03,-31C2751.62,-31 2760.4,-31 2769.69,-31"/>
<polygon fill="black" stroke="black" points="2769.93,-34.5 2779.93,-31 2769.93,-27.5 2769.93,-34.5"/>
</g>
<!-- 268227379436944&#45;&gt;268227379435168 -->
<g id="edge23" class="edge">
<title>268227379436944&#45;&gt;268227379435168</title>
<path fill="none" stroke="black" d="M3043.11,-31C3050.63,-31 3059.32,-31 3068.58,-31"/>
<polygon fill="black" stroke="black" points="3068.81,-34.5 3078.81,-31 3068.81,-27.5 3068.81,-34.5"/>
</g>
<!-- 268227379432576&#45;&gt;268227379435504 -->
<g id="edge25" class="edge">
<title>268227379432576&#45;&gt;268227379435504</title>
<path fill="none" stroke="black" d="M3359.17,-31C3366.6,-31 3375.21,-31 3384.43,-31"/>
<polygon fill="black" stroke="black" points="3384.66,-34.5 3394.66,-31 3384.66,-27.5 3384.66,-34.5"/>
</g>
<!-- 268227379435264&#45;&gt;268227379435888 -->
<g id="edge27" class="edge">
<title>268227379435264&#45;&gt;268227379435888</title>
<path fill="none" stroke="black" d="M3698.26,-31C3705.96,-31 3714.73,-31 3723.64,-31"/>
<polygon fill="black" stroke="black" points="3723.71,-34.5 3733.71,-31 3723.71,-27.5 3723.71,-34.5"/>
</g>
</g>
</svg>
