<?xml version="1.0" encoding="UTF-8" standalone="no"?>
<!DOCTYPE svg PUBLIC "-//W3C//DTD SVG 1.1//EN"
 "http://www.w3.org/Graphics/SVG/1.1/DTD/svg11.dtd">
<!-- Generated by graphviz version 2.43.0 (0)
 -->
<!-- Title: %3 Pages: 1 -->
<svg width="2728pt" height="44pt"
 viewBox="0.00 0.00 2728.00 44.00" xmlns="http://www.w3.org/2000/svg" xmlns:xlink="http://www.w3.org/1999/xlink">
<g id="graph0" class="graph" transform="scale(1 1) rotate(0) translate(4 40)">
<title>%3</title>
<polygon fill="white" stroke="transparent" points="-4,4 -4,-40 2724,-40 2724,4 -4,4"/>
<!-- 281097146046400 -->
<g id="node1" class="node">
<title>281097146046400</title>
<ellipse fill="green" stroke="black" cx="18" cy="-18" rx="18" ry="18"/>
</g>
<!-- 281097239559152 -->
<g id="node2" class="node">
<title>281097239559152</title>
<polygon fill="none" stroke="black" points="250,-36 72,-36 72,0 250,0 250,-36"/>
<text text-anchor="middle" x="161" y="-14.9" font-family="Times,serif" font-size="12.00">Purchase Order Submitted</text>
</g>
<!-- 281097146046400&#45;&gt;281097239559152 -->
<g id="edge1" class="edge">
<title>281097146046400&#45;&gt;281097239559152</title>
<path fill="none" stroke="black" d="M36.01,-18C43.15,-18 52.07,-18 61.83,-18"/>
<polygon fill="black" stroke="black" points="61.83,-21.5 71.83,-18 61.83,-14.5 61.83,-21.5"/>
</g>
<!-- 281097146137872 -->
<g id="node3" class="node">
<title>281097146137872</title>
<polygon fill="none" stroke="black" points="423,-36 286,-36 286,0 423,0 423,-36"/>
<text text-anchor="middle" x="354.5" y="-14.9" font-family="Times,serif" font-size="12.00">Quote Confirmation</text>
</g>
<!-- 281097239559152&#45;&gt;281097146137872 -->
<g id="edge2" class="edge">
<title>281097239559152&#45;&gt;281097146137872</title>
<path fill="none" stroke="black" d="M250.18,-18C258.7,-18 267.29,-18 275.69,-18"/>
<polygon fill="black" stroke="black" points="275.83,-21.5 285.83,-18 275.83,-14.5 275.83,-21.5"/>
</g>
<!-- 281097146137536 -->
<g id="node4" class="node">
<title>281097146137536</title>
<polygon fill="none" stroke="black" points="666,-36 459,-36 459,0 666,0 666,-36"/>
<text text-anchor="middle" x="562.5" y="-14.9" font-family="Times,serif" font-size="12.00">Order Approved for Production</text>
</g>
<!-- 281097146137872&#45;&gt;281097146137536 -->
<g id="edge3" class="edge">
<title>281097146137872&#45;&gt;281097146137536</title>
<path fill="none" stroke="black" d="M423.24,-18C431.41,-18 439.93,-18 448.53,-18"/>
<polygon fill="black" stroke="black" points="448.66,-21.5 458.66,-18 448.66,-14.5 448.66,-21.5"/>
</g>
<!-- 281097146136624 -->
<g id="node5" class="node">
<title>281097146136624</title>
<polygon fill="none" stroke="black" points="834,-36 702,-36 702,0 834,0 834,-36"/>
<text text-anchor="middle" x="768" y="-14.9" font-family="Times,serif" font-size="12.00">Production Started</text>
</g>
<!-- 281097146137536&#45;&gt;281097146136624 -->
<g id="edge4" class="edge">
<title>281097146137536&#45;&gt;281097146136624</title>
<path fill="none" stroke="black" d="M666.14,-18C674.78,-18 683.41,-18 691.78,-18"/>
<polygon fill="black" stroke="black" points="691.85,-21.5 701.85,-18 691.85,-14.5 691.85,-21.5"/>
</g>
<!-- 281097146138256 -->
<g id="node6" class="node">
<title>281097146138256</title>
<polygon fill="none" stroke="black" points="1016,-36 870,-36 870,0 1016,0 1016,-36"/>
<text text-anchor="middle" x="943" y="-14.9" font-family="Times,serif" font-size="12.00">QC Inspection Report</text>
</g>
<!-- 281097146136624&#45;&gt;281097146138256 -->
<g id="edge5" class="edge">
<title>281097146136624&#45;&gt;281097146138256</title>
<path fill="none" stroke="black" d="M834.4,-18C842.64,-18 851.14,-18 859.59,-18"/>
<polygon fill="black" stroke="black" points="859.85,-21.5 869.85,-18 859.85,-14.5 859.85,-21.5"/>
</g>
<!-- 281097146138944 -->
<g id="node7" class="node">
<title>281097146138944</title>
<polygon fill="none" stroke="black" points="1192,-36 1052,-36 1052,0 1192,0 1192,-36"/>
<text text-anchor="middle" x="1122" y="-14.9" font-family="Times,serif" font-size="12.00">Shipment Scheduled</text>
</g>
<!-- 281097146138256&#45;&gt;281097146138944 -->
<g id="edge6" class="edge">
<title>281097146138256&#45;&gt;281097146138944</title>
<path fill="none" stroke="black" d="M1016.25,-18C1024.61,-18 1033.17,-18 1041.61,-18"/>
<polygon fill="black" stroke="black" points="1041.84,-21.5 1051.84,-18 1041.84,-14.5 1041.84,-21.5"/>
</g>
<!-- 281097146139280 -->
<g id="node8" class="node">
<title>281097146139280</title>
<polygon fill="none" stroke="black" points="1360,-36 1228,-36 1228,0 1360,0 1360,-36"/>
<text text-anchor="middle" x="1294" y="-14.9" font-family="Times,serif" font-size="12.00">Loaded onto Truck</text>
</g>
<!-- 281097146138944&#45;&gt;281097146139280 -->
<g id="edge7" class="edge">
<title>281097146138944&#45;&gt;281097146139280</title>
<path fill="none" stroke="black" d="M1192.15,-18C1200.51,-18 1209.09,-18 1217.54,-18"/>
<polygon fill="black" stroke="black" points="1217.76,-21.5 1227.76,-18 1217.76,-14.5 1217.76,-21.5"/>
</g>
<!-- 281097146139616 -->
<g id="node9" class="node">
<title>281097146139616</title>
<polygon fill="none" stroke="black" points="1515,-36 1396,-36 1396,0 1515,0 1515,-36"/>
<text text-anchor="middle" x="1455.5" y="-14.9" font-family="Times,serif" font-size="12.00">Delivery Delayed</text>
</g>
<!-- 281097146139280&#45;&gt;281097146139616 -->
<g id="edge8" class="edge">
<title>281097146139280&#45;&gt;281097146139616</title>
<path fill="none" stroke="black" d="M1360.33,-18C1368.71,-18 1377.31,-18 1385.75,-18"/>
<polygon fill="black" stroke="black" points="1385.92,-21.5 1395.92,-18 1385.92,-14.5 1385.92,-21.5"/>
</g>
<!-- 281097146139952 -->
<g id="node10" class="node">
<title>281097146139952</title>
<polygon fill="none" stroke="black" points="1656,-36 1551,-36 1551,0 1656,0 1656,-36"/>
<text text-anchor="middle" x="1603.5" y="-14.9" font-family="Times,serif" font-size="12.00">Order Delayed</text>
</g>
<!-- 281097146139616&#45;&gt;281097146139952 -->
<g id="edge9" class="edge">
<title>281097146139616&#45;&gt;281097146139952</title>
<path fill="none" stroke="black" d="M1515.04,-18C1523.39,-18 1532,-18 1540.41,-18"/>
<polygon fill="black" stroke="black" points="1540.54,-21.5 1550.54,-18 1540.54,-14.5 1540.54,-21.5"/>
</g>
<!-- 281097146138352 -->
<g id="node11" class="node">
<title>281097146138352</title>
<polygon fill="none" stroke="black" points="1826,-36 1692,-36 1692,0 1826,0 1826,-36"/>
<text text-anchor="middle" x="1759" y="-14.9" font-family="Times,serif" font-size="12.00">Delivery Confirmed</text>
</g>
<!-- 281097146139952&#45;&gt;281097146138352 -->
<g id="edge10" class="edge">
<title>281097146139952&#45;&gt;281097146138352</title>
<path fill="none" stroke="black" d="M1656.04,-18C1664.3,-18 1673.01,-18 1681.7,-18"/>
<polygon fill="black" stroke="black" points="1681.88,-21.5 1691.88,-18 1681.88,-14.5 1681.88,-21.5"/>
</g>
<!-- 281097146134560 -->
<g id="node12" class="node">
<title>281097146134560</title>
<polygon fill="none" stroke="black" points="2035,-36 1862,-36 1862,0 2035,0 2035,-36"/>
<text text-anchor="middle" x="1948.5" y="-14.9" font-family="Times,serif" font-size="12.00">Delivery Delay Confirmed</text>
</g>
<!-- 281097146138352&#45;&gt;281097146134560 -->
<g id="edge11" class="edge">
<title>281097146138352&#45;&gt;281097146134560</title>
<path fill="none" stroke="black" d="M1826.11,-18C1834.44,-18 1843.1,-18 1851.78,-18"/>
<polygon fill="black" stroke="black" points="1851.96,-21.5 1861.96,-18 1851.96,-14.5 1851.96,-21.5"/>
</g>
<!-- 281097146134176 -->
<g id="node13" class="node">
<title>281097146134176</title>
<polygon fill="none" stroke="black" points="2261,-36 2071,-36 2071,0 2261,0 2261,-36"/>
<text text-anchor="middle" x="2166" y="-14.9" font-family="Times,serif" font-size="12.00">Foundation Footers Installed</text>
</g>
<!-- 281097146134560&#45;&gt;281097146134176 -->
<g id="edge12" class="edge">
<title>281097146134560&#45;&gt;281097146134176</title>
<path fill="none" stroke="black" d="M2035.29,-18C2043.55,-18 2051.99,-18 2060.41,-18"/>
<polygon fill="black" stroke="black" points="2060.65,-21.5 2070.65,-18 2060.65,-14.5 2060.65,-21.5"/>
</g>
<!-- 281097146134224 -->
<g id="node14" class="node">
<title>281097146134224</title>
<polygon fill="none" stroke="black" points="2510,-36 2297,-36 2297,0 2510,0 2510,-36"/>
<text text-anchor="middle" x="2403.5" y="-14.9" font-family="Times,serif" font-size="12.00">Foundation Inspection Approved</text>
</g>
<!-- 281097146134176&#45;&gt;281097146134224 -->
<g id="edge13" class="edge">
<title>281097146134176&#45;&gt;281097146134224</title>
<path fill="none" stroke="black" d="M2261.09,-18C2269.56,-18 2278.21,-18 2286.83,-18"/>
<polygon fill="black" stroke="black" points="2286.94,-21.5 2296.94,-18 2286.94,-14.5 2286.94,-21.5"/>
</g>
<!-- 281097146132784 -->
<g id="node15" class="node">
<title>281097146132784</title>
<polygon fill="none" stroke="black" points="2648,-36 2546,-36 2546,0 2648,0 2648,-36"/>
<text text-anchor="middle" x="2597" y="-14.9" font-family="Times,serif" font-size="12.00">Invoice Issued</text>
</g>
<!-- 281097146134224&#45;&gt;281097146132784 -->
<g id="edge14" class="edge">
<title>281097146134224&#45;&gt;281097146132784</title>
<path fill="none" stroke="black" d="M2510.05,-18C2518.83,-18 2527.5,-18 2535.76,-18"/>
<polygon fill="black" stroke="black" points="2535.97,-21.5 2545.97,-18 2535.97,-14.5 2535.97,-21.5"/>
</g>
<!-- 281097146062832 -->
<g id="node16" class="node">
<title>281097146062832</title>
<ellipse fill="orange" stroke="black" cx="2702" cy="-18" rx="18" ry="18"/>
</g>
<!-- 281097146132784&#45;&gt;281097146062832 -->
<g id="edge15" class="edge">
<title>281097146132784&#45;&gt;281097146062832</title>
<path fill="none" stroke="black" d="M2648.29,-18C2657.14,-18 2666.04,-18 2673.93,-18"/>
<polygon fill="black" stroke="black" points="2673.98,-21.5 2683.98,-18 2673.98,-14.5 2673.98,-21.5"/>
</g>
</g>
</svg>
