<?xml version="1.0" encoding="UTF-8" standalone="no"?>
<!DOCTYPE svg PUBLIC "-//W3C//DTD SVG 1.1//EN"
 "http://www.w3.org/Graphics/SVG/1.1/DTD/svg11.dtd">
<!-- Generated by graphviz version 2.43.0 (0)
 -->
<!-- Title: %3 Pages: 1 -->
<svg width="221pt" height="1364pt"
 viewBox="0.00 0.00 221.00 1363.94" xmlns="http://www.w3.org/2000/svg" xmlns:xlink="http://www.w3.org/1999/xlink">
<g id="graph0" class="graph" transform="scale(1 1) rotate(0) translate(4 1359.94)">
<title>%3</title>
<polygon fill="white" stroke="transparent" points="-4,4 -4,-1359.94 217,-1359.94 217,4 -4,4"/>
<!-- 9076218632175360295 -->
<g id="node1" class="node">
<title>9076218632175360295</title>
<polygon fill="none" stroke="black" points="195.5,-1252.47 17.5,-1252.47 17.5,-1216.47 195.5,-1216.47 195.5,-1252.47"/>
<text text-anchor="middle" x="106.5" y="-1231.37" font-family="Times,serif" font-size="12.00">Purchase Order Submitted</text>
</g>
<!-- &#45;6309557132471350034 -->
<g id="node2" class="node">
<title>&#45;6309557132471350034</title>
<polygon fill="none" stroke="black" points="175,-1167.47 38,-1167.47 38,-1131.47 175,-1131.47 175,-1167.47"/>
<text text-anchor="middle" x="106.5" y="-1146.37" font-family="Times,serif" font-size="12.00">Quote Confirmation</text>
</g>
<!-- 9076218632175360295&#45;&gt;&#45;6309557132471350034 -->
<g id="edge1" class="edge">
<title>9076218632175360295&#45;&gt;&#45;6309557132471350034</title>
<path fill="none" stroke="#1c00e2" stroke-width="1.18" d="M106.5,-1216.27C106.5,-1205.14 106.5,-1190.41 106.5,-1177.71"/>
<polygon fill="#1c00e2" stroke="#1c00e2" stroke-width="1.18" points="110,-1177.64 106.5,-1167.64 103,-1177.64 110,-1177.64"/>
<text text-anchor="middle" x="114.5" y="-1188.87" font-family="Times,serif" font-size="12.00">5h</text>
</g>
<!-- &#45;6722472106916484854 -->
<g id="node3" class="node">
<title>&#45;6722472106916484854</title>
<polygon fill="none" stroke="black" points="210,-1082.47 3,-1082.47 3,-1046.47 210,-1046.47 210,-1082.47"/>
<text text-anchor="middle" x="106.5" y="-1061.37" font-family="Times,serif" font-size="12.00">Order Approved for Production</text>
</g>
<!-- &#45;6309557132471350034&#45;&gt;&#45;6722472106916484854 -->
<g id="edge2" class="edge">
<title>&#45;6309557132471350034&#45;&gt;&#45;6722472106916484854</title>
<path fill="none" stroke="#64009a" stroke-width="1.64" d="M106.5,-1131.27C106.5,-1120.14 106.5,-1105.41 106.5,-1092.71"/>
<polygon fill="#64009a" stroke="#64009a" stroke-width="1.64" points="110,-1092.64 106.5,-1082.64 103,-1092.64 110,-1092.64"/>
<text text-anchor="middle" x="118" y="-1103.87" font-family="Times,serif" font-size="12.00">18h</text>
</g>
<!-- 9211802696541496642 -->
<g id="node4" class="node">
<title>9211802696541496642</title>
<polygon fill="none" stroke="black" points="172.5,-997.47 40.5,-997.47 40.5,-961.47 172.5,-961.47 172.5,-997.47"/>
<text text-anchor="middle" x="106.5" y="-976.37" font-family="Times,serif" font-size="12.00">Production Started</text>
</g>
<!-- &#45;6722472106916484854&#45;&gt;9211802696541496642 -->
<g id="edge3" class="edge">
<title>&#45;6722472106916484854&#45;&gt;9211802696541496642</title>
<path fill="none" stroke="#780086" stroke-width="1.76" d="M106.5,-1046.27C106.5,-1035.14 106.5,-1020.41 106.5,-1007.71"/>
<polygon fill="#780086" stroke="#780086" stroke-width="1.76" points="110,-1007.64 106.5,-997.64 103,-1007.64 110,-1007.64"/>
<text text-anchor="middle" x="118" y="-1018.87" font-family="Times,serif" font-size="12.00">21h</text>
</g>
<!-- &#45;257823578152294650 -->
<g id="node5" class="node">
<title>&#45;257823578152294650</title>
<polygon fill="none" stroke="black" points="179.5,-912.47 33.5,-912.47 33.5,-876.47 179.5,-876.47 179.5,-912.47"/>
<text text-anchor="middle" x="106.5" y="-891.37" font-family="Times,serif" font-size="12.00">QC Inspection Report</text>
</g>
<!-- 9211802696541496642&#45;&gt;&#45;257823578152294650 -->
<g id="edge4" class="edge">
<title>9211802696541496642&#45;&gt;&#45;257823578152294650</title>
<path fill="none" stroke="#b60048" stroke-width="2.15" d="M106.5,-961.27C106.5,-950.14 106.5,-935.41 106.5,-922.71"/>
<polygon fill="#b60048" stroke="#b60048" stroke-width="2.15" points="110,-922.64 106.5,-912.64 103,-922.64 110,-922.64"/>
<text text-anchor="middle" x="115.5" y="-933.87" font-family="Times,serif" font-size="12.00">1D</text>
</g>
<!-- &#45;2332445216433733546 -->
<g id="node6" class="node">
<title>&#45;2332445216433733546</title>
<polygon fill="none" stroke="black" points="176.5,-827.47 36.5,-827.47 36.5,-791.47 176.5,-791.47 176.5,-827.47"/>
<text text-anchor="middle" x="106.5" y="-806.37" font-family="Times,serif" font-size="12.00">Shipment Scheduled</text>
</g>
<!-- &#45;257823578152294650&#45;&gt;&#45;2332445216433733546 -->
<g id="edge5" class="edge">
<title>&#45;257823578152294650&#45;&gt;&#45;2332445216433733546</title>
<path fill="none" stroke="#6d0091" stroke-width="1.69" d="M106.5,-876.27C106.5,-865.14 106.5,-850.41 106.5,-837.71"/>
<polygon fill="#6d0091" stroke="#6d0091" stroke-width="1.69" points="110,-837.64 106.5,-827.64 103,-837.64 110,-837.64"/>
<text text-anchor="middle" x="118" y="-848.87" font-family="Times,serif" font-size="12.00">19h</text>
</g>
<!-- 5332329727705121048 -->
<g id="node7" class="node">
<title>5332329727705121048</title>
<polygon fill="none" stroke="black" points="172.5,-742.47 40.5,-742.47 40.5,-706.47 172.5,-706.47 172.5,-742.47"/>
<text text-anchor="middle" x="106.5" y="-721.37" font-family="Times,serif" font-size="12.00">Loaded onto Truck</text>
</g>
<!-- &#45;2332445216433733546&#45;&gt;5332329727705121048 -->
<g id="edge6" class="edge">
<title>&#45;2332445216433733546&#45;&gt;5332329727705121048</title>
<path fill="none" stroke="#70008e" stroke-width="1.71" d="M106.5,-791.27C106.5,-780.14 106.5,-765.41 106.5,-752.71"/>
<polygon fill="#70008e" stroke="#70008e" stroke-width="1.71" points="110,-752.64 106.5,-742.64 103,-752.64 110,-752.64"/>
<text text-anchor="middle" x="118" y="-763.87" font-family="Times,serif" font-size="12.00">20h</text>
</g>
<!-- &#45;3304176906226095080 -->
<g id="node8" class="node">
<title>&#45;3304176906226095080</title>
<polygon fill="none" stroke="black" points="166,-657.47 47,-657.47 47,-621.47 166,-621.47 166,-657.47"/>
<text text-anchor="middle" x="106.5" y="-636.37" font-family="Times,serif" font-size="12.00">Delivery Delayed</text>
</g>
<!-- 5332329727705121048&#45;&gt;&#45;3304176906226095080 -->
<g id="edge7" class="edge">
<title>5332329727705121048&#45;&gt;&#45;3304176906226095080</title>
<path fill="none" stroke="#2500d9" stroke-width="1.24" d="M106.5,-706.27C106.5,-695.14 106.5,-680.41 106.5,-667.71"/>
<polygon fill="#2500d9" stroke="#2500d9" stroke-width="1.24" points="110,-667.64 106.5,-657.64 103,-667.64 110,-667.64"/>
<text text-anchor="middle" x="114.5" y="-678.87" font-family="Times,serif" font-size="12.00">6h</text>
</g>
<!-- &#45;2853046859372470595 -->
<g id="node9" class="node">
<title>&#45;2853046859372470595</title>
<polygon fill="none" stroke="black" points="159,-572.47 54,-572.47 54,-536.47 159,-536.47 159,-572.47"/>
<text text-anchor="middle" x="106.5" y="-551.37" font-family="Times,serif" font-size="12.00">Order Delayed</text>
</g>
<!-- &#45;3304176906226095080&#45;&gt;&#45;2853046859372470595 -->
<g id="edge8" class="edge">
<title>&#45;3304176906226095080&#45;&gt;&#45;2853046859372470595</title>
<path fill="none" stroke="#fe0000" stroke-width="2.6" d="M106.5,-621.27C106.5,-610.14 106.5,-595.41 106.5,-582.71"/>
<polygon fill="#fe0000" stroke="#fe0000" stroke-width="2.6" points="110,-582.64 106.5,-572.64 103,-582.64 110,-582.64"/>
<text text-anchor="middle" x="115.5" y="-593.87" font-family="Times,serif" font-size="12.00">1D</text>
</g>
<!-- 3005095361485297306 -->
<g id="node10" class="node">
<title>3005095361485297306</title>
<polygon fill="none" stroke="black" points="173.5,-487.47 39.5,-487.47 39.5,-451.47 173.5,-451.47 173.5,-487.47"/>
<text text-anchor="middle" x="106.5" y="-466.37" font-family="Times,serif" font-size="12.00">Delivery Confirmed</text>
</g>
<!-- &#45;2853046859372470595&#45;&gt;3005095361485297306 -->
<g id="edge9" class="edge">
<title>&#45;2853046859372470595&#45;&gt;3005095361485297306</title>
<path fill="none" stroke="#0700f7" stroke-width="1.05" d="M106.5,-536.27C106.5,-525.14 106.5,-510.41 106.5,-497.71"/>
<polygon fill="#0700f7" stroke="#0700f7" stroke-width="1.05" points="110,-497.64 106.5,-487.64 103,-497.64 110,-497.64"/>
<text text-anchor="middle" x="114.5" y="-508.87" font-family="Times,serif" font-size="12.00">1h</text>
</g>
<!-- &#45;1165510402423555464 -->
<g id="node11" class="node">
<title>&#45;1165510402423555464</title>
<polygon fill="none" stroke="black" points="193,-402.47 20,-402.47 20,-366.47 193,-366.47 193,-402.47"/>
<text text-anchor="middle" x="106.5" y="-381.37" font-family="Times,serif" font-size="12.00">Delivery Delay Confirmed</text>
</g>
<!-- 3005095361485297306&#45;&gt;&#45;1165510402423555464 -->
<g id="edge10" class="edge">
<title>3005095361485297306&#45;&gt;&#45;1165510402423555464</title>
<path fill="none" stroke="#0000ff" stroke-width="1.01" d="M106.5,-451.27C106.5,-440.14 106.5,-425.41 106.5,-412.71"/>
<polygon fill="#0000ff" stroke="#0000ff" stroke-width="1.01" points="110,-412.64 106.5,-402.64 103,-412.64 110,-412.64"/>
<text text-anchor="middle" x="120" y="-423.87" font-family="Times,serif" font-size="12.00">12m</text>
</g>
<!-- &#45;5654772780697812656 -->
<g id="node12" class="node">
<title>&#45;5654772780697812656</title>
<polygon fill="none" stroke="black" points="201.5,-317.47 11.5,-317.47 11.5,-281.47 201.5,-281.47 201.5,-317.47"/>
<text text-anchor="middle" x="106.5" y="-296.37" font-family="Times,serif" font-size="12.00">Foundation Footers Installed</text>
</g>
<!-- &#45;1165510402423555464&#45;&gt;&#45;5654772780697812656 -->
<g id="edge11" class="edge">
<title>&#45;1165510402423555464&#45;&gt;&#45;5654772780697812656</title>
<path fill="none" stroke="#1200ec" stroke-width="1.12" d="M106.5,-366.27C106.5,-355.14 106.5,-340.41 106.5,-327.71"/>
<polygon fill="#1200ec" stroke="#1200ec" stroke-width="1.12" points="110,-327.64 106.5,-317.64 103,-327.64 110,-327.64"/>
<text text-anchor="middle" x="114.5" y="-338.87" font-family="Times,serif" font-size="12.00">3h</text>
</g>
<!-- &#45;4189722848135168784 -->
<g id="node13" class="node">
<title>&#45;4189722848135168784</title>
<polygon fill="none" stroke="black" points="213,-232.47 0,-232.47 0,-196.47 213,-196.47 213,-232.47"/>
<text text-anchor="middle" x="106.5" y="-211.37" font-family="Times,serif" font-size="12.00">Foundation Inspection Approved</text>
</g>
<!-- &#45;5654772780697812656&#45;&gt;&#45;4189722848135168784 -->
<g id="edge12" class="edge">
<title>&#45;5654772780697812656&#45;&gt;&#45;4189722848135168784</title>
<path fill="none" stroke="#e3001b" stroke-width="2.43" d="M106.5,-281.27C106.5,-270.14 106.5,-255.41 106.5,-242.71"/>
<polygon fill="#e3001b" stroke="#e3001b" stroke-width="2.43" points="110,-242.64 106.5,-232.64 103,-242.64 110,-242.64"/>
<text text-anchor="middle" x="115.5" y="-253.87" font-family="Times,serif" font-size="12.00">1D</text>
</g>
<!-- 1802091417922869655 -->
<g id="node14" class="node">
<title>1802091417922869655</title>
<polygon fill="none" stroke="black" points="157.5,-147.47 55.5,-147.47 55.5,-111.47 157.5,-111.47 157.5,-147.47"/>
<text text-anchor="middle" x="106.5" y="-126.37" font-family="Times,serif" font-size="12.00">Invoice Issued</text>
</g>
<!-- &#45;4189722848135168784&#45;&gt;1802091417922869655 -->
<g id="edge13" class="edge">
<title>&#45;4189722848135168784&#45;&gt;1802091417922869655</title>
<path fill="none" stroke="#2100dd" stroke-width="1.22" d="M106.5,-196.27C106.5,-185.14 106.5,-170.41 106.5,-157.71"/>
<polygon fill="#2100dd" stroke="#2100dd" stroke-width="1.22" points="110,-157.64 106.5,-147.64 103,-157.64 110,-157.64"/>
<text text-anchor="middle" x="114.5" y="-168.87" font-family="Times,serif" font-size="12.00">6h</text>
</g>
<!-- @@endnode -->
<g id="node16" class="node">
<title>@@endnode</title>
<ellipse fill="none" stroke="black" cx="106.5" cy="-37.23" rx="33.44" ry="33.44"/>
<ellipse fill="none" stroke="black" cx="106.5" cy="-37.23" rx="37.47" ry="37.47"/>
<text text-anchor="start" x="91" y="-29.13" font-family="Times,serif" font-size="32.00">■</text>
</g>
<!-- 1802091417922869655&#45;&gt;@@endnode -->
<g id="edge15" class="edge">
<title>1802091417922869655&#45;&gt;@@endnode</title>
<path fill="none" stroke="black" d="M106.5,-111.07C106.5,-103.47 106.5,-94.16 106.5,-84.77"/>
<polygon fill="black" stroke="black" points="110,-84.63 106.5,-74.63 103,-84.63 110,-84.63"/>
</g>
<!-- @@startnode -->
<g id="node15" class="node">
<title>@@startnode</title>
<ellipse fill="none" stroke="black" cx="106.5" cy="-1322.7" rx="33.47" ry="33.47"/>
<text text-anchor="start" x="91" y="-1314" font-family="Times,serif" font-size="34.00">●</text>
</g>
<!-- @@startnode&#45;&gt;9076218632175360295 -->
<g id="edge14" class="edge">
<title>@@startnode&#45;&gt;9076218632175360295</title>
<path fill="none" stroke="black" d="M106.5,-1289.1C106.5,-1280.38 106.5,-1271.05 106.5,-1262.66"/>
<polygon fill="black" stroke="black" points="110,-1262.64 106.5,-1252.64 103,-1262.64 110,-1262.64"/>
</g>
</g>
</svg>
